M48
INCH
T34C0.012
T33C0.032
T32C0.043
%
T34
X002250Y006060
X003700Y008450
X004050Y008450
X005150Y005900
X005160Y007080
X005300Y006600
X005300Y006250
X005400Y005030
X006150Y003500
X006450Y003500
X006550Y007500
X006600Y006550
X006850Y007500
X006900Y006350
T33
X000669Y008050
X000669Y007263
X000669Y006475
X000669Y005688
X000669Y004900
X000669Y004113
X000669Y003326
X000669Y002538
X000669Y001751
X000669Y000963
X009331Y008050
X009331Y007263
X009331Y006475
X009331Y005688
X009331Y004900
X009331Y004113
X009331Y003326
X009331Y002538
X009331Y001751
X009331Y000963
T32
X004134Y010088
X005866Y010088
M30
