G04 start of page 8 for group -4079 idx -4079 *
G04 Title: (unknown), topsilk *
G04 Creator: pcb 4.0.2 *
G04 CreationDate: Sat May 14 18:28:01 2022 UTC *
G04 For: railfan *
G04 Format: Gerber/RS-274X *
G04 PCB-Dimensions (mil): 1000.00 1250.00 *
G04 PCB-Coordinate-Origin: lower left *
%MOIN*%
%FSLAX25Y25*%
%LNTOPSILK*%
%ADD44C,0.0080*%
%ADD43C,0.0100*%
G54D43*X85500Y17000D02*Y14000D01*
X84000Y15500D02*X87000D01*
X63500Y17000D02*Y14000D01*
X62000Y15500D02*X65000D01*
X34000Y17000D02*Y14000D01*
X32500Y15500D02*X35500D01*
X74745Y57893D02*Y57107D01*
X80255Y57893D02*Y57107D01*
X61607Y73255D02*X62393D01*
X61607Y67745D02*X62393D01*
X59745Y42893D02*Y42107D01*
X65255Y42893D02*Y42107D01*
X59745Y57893D02*Y57107D01*
X65255Y57893D02*Y57107D01*
X27500Y124500D02*X72500D01*
Y88500D01*
X27500Y124500D02*Y88500D01*
X61607Y82255D02*X62393D01*
X61607Y76745D02*X62393D01*
X21638Y14240D02*X26362D01*
X21638Y6760D02*X26362D01*
X14700Y78200D02*X29600D01*
X34600D02*X49600D01*
Y40400D01*
X14700D01*
Y78200D01*
X29600D02*G75*G03X34600Y78200I2500J0D01*G01*
X51138Y14240D02*X55862D01*
X51138Y6760D02*X55862D01*
X36245Y25393D02*Y24607D01*
X41755Y25393D02*Y24607D01*
X1693Y83709D02*Y717D01*
X98307Y83709D02*Y717D01*
X1693D02*X98307D01*
X1693Y83709D02*X31890Y109418D01*
X98307Y83709D02*X68110Y109418D01*
X31890D02*X68110D01*
X58650Y33255D02*X59436D01*
X58650Y27745D02*X59436D01*
X73138Y14240D02*X77862D01*
X73138Y6760D02*X77862D01*
X74745Y42893D02*Y42107D01*
X80255Y42893D02*Y42107D01*
G54D44*X81393Y59607D02*X83393D01*
X83893Y59107D01*
Y58107D01*
X83393Y57607D02*X83893Y58107D01*
X81893Y57607D02*X83393D01*
X81893Y59607D02*Y55607D01*
X82693Y57607D02*X83893Y55607D01*
X85093Y57107D02*X87093Y59607D01*
X85093Y57107D02*X87593D01*
X87093Y59607D02*Y55607D01*
X66350Y44650D02*X68350D01*
X68850Y44150D01*
Y43150D01*
X68350Y42650D02*X68850Y43150D01*
X66850Y42650D02*X68350D01*
X66850Y44650D02*Y40650D01*
X67650Y42650D02*X68850Y40650D01*
X70050Y44150D02*X70550Y44650D01*
X72050D01*
X72550Y44150D01*
Y43150D01*
X70050Y40650D02*X72550Y43150D01*
X70050Y40650D02*X72550D01*
X81393Y44607D02*X83393D01*
X83893Y44107D01*
Y43107D01*
X83393Y42607D02*X83893Y43107D01*
X81893Y42607D02*X83393D01*
X81893Y44607D02*Y40607D01*
X82693Y42607D02*X83893Y40607D01*
X85093Y44607D02*X87093D01*
X85093D02*Y42607D01*
X85593Y43107D01*
X86593D01*
X87093Y42607D01*
Y41107D01*
X86593Y40607D02*X87093Y41107D01*
X85593Y40607D02*X86593D01*
X85093Y41107D02*X85593Y40607D01*
X48200Y115500D02*X49000D01*
Y112000D01*
X48500Y111500D02*X49000Y112000D01*
X48000Y111500D02*X48500D01*
X47500Y112000D02*X48000Y111500D01*
X47500Y112500D02*Y112000D01*
X50200Y114700D02*X51000Y115500D01*
Y111500D01*
X50200D02*X51700D01*
X70550Y77650D02*X71850D01*
X69850Y78350D02*X70550Y77650D01*
X69850Y80950D02*Y78350D01*
Y80950D02*X70550Y81650D01*
X71850D01*
X73050Y80850D02*X73850Y81650D01*
Y77650D01*
X73050D02*X74550D01*
X70550Y68650D02*X71850D01*
X69850Y69350D02*X70550Y68650D01*
X69850Y71950D02*Y69350D01*
Y71950D02*X70550Y72650D01*
X71850D01*
X73050Y72150D02*X73550Y72650D01*
X75050D01*
X75550Y72150D01*
Y71150D01*
X73050Y68650D02*X75550Y71150D01*
X73050Y68650D02*X75550D01*
X66393Y59693D02*X68393D01*
X68893Y59193D01*
Y58193D01*
X68393Y57693D02*X68893Y58193D01*
X66893Y57693D02*X68393D01*
X66893Y59693D02*Y55693D01*
X67693Y57693D02*X68893Y55693D01*
X70093Y58893D02*X70893Y59693D01*
Y55693D01*
X70093D02*X71593D01*
X21850Y19650D02*Y15650D01*
X23150Y19650D02*X23850Y18950D01*
Y16350D01*
X23150Y15650D02*X23850Y16350D01*
X21350Y15650D02*X23150D01*
X21350Y19650D02*X23150D01*
X25050Y18850D02*X25850Y19650D01*
Y15650D01*
X25050D02*X26550D01*
X42850Y27150D02*X44850D01*
X45350Y26650D01*
Y25650D01*
X44850Y25150D02*X45350Y25650D01*
X43350Y25150D02*X44850D01*
X43350Y27150D02*Y23150D01*
X44150Y25150D02*X45350Y23150D01*
X46550Y26650D02*X47050Y27150D01*
X48050D01*
X48550Y26650D01*
X48050Y23150D02*X48550Y23650D01*
X47050Y23150D02*X48050D01*
X46550Y23650D02*X47050Y23150D01*
Y25350D02*X48050D01*
X48550Y26650D02*Y25850D01*
Y24850D02*Y23650D01*
Y24850D02*X48050Y25350D01*
X48550Y25850D02*X48050Y25350D01*
X29300Y38200D02*Y34700D01*
X29800Y34200D01*
X30800D01*
X31300Y34700D01*
Y38200D02*Y34700D01*
X32500Y37400D02*X33300Y38200D01*
Y34200D01*
X32500D02*X34000D01*
X57593Y22150D02*X58893D01*
X56893Y22850D02*X57593Y22150D01*
X56893Y25450D02*Y22850D01*
Y25450D02*X57593Y26150D01*
X58893D01*
X60093Y25650D02*X60593Y26150D01*
X61593D01*
X62093Y25650D01*
X61593Y22150D02*X62093Y22650D01*
X60593Y22150D02*X61593D01*
X60093Y22650D02*X60593Y22150D01*
Y24350D02*X61593D01*
X62093Y25650D02*Y24850D01*
Y23850D02*Y22650D01*
Y23850D02*X61593Y24350D01*
X62093Y24850D02*X61593Y24350D01*
X50845Y19660D02*Y15700D01*
X52132Y19660D02*X52825Y18967D01*
Y16393D01*
X52132Y15700D02*X52825Y16393D01*
X50350Y15700D02*X52132D01*
X50350Y19660D02*X52132D01*
X54013Y19165D02*X54508Y19660D01*
X55993D01*
X56488Y19165D01*
Y18175D01*
X54013Y15700D02*X56488Y18175D01*
X54013Y15700D02*X56488D01*
X19800Y36000D02*X20600D01*
Y32500D01*
X20100Y32000D02*X20600Y32500D01*
X19600Y32000D02*X20100D01*
X19100Y32500D02*X19600Y32000D01*
X19100Y33000D02*Y32500D01*
X21800Y35500D02*X22300Y36000D01*
X23800D01*
X24300Y35500D01*
Y34500D01*
X21800Y32000D02*X24300Y34500D01*
X21800Y32000D02*X24300D01*
X72850Y19650D02*Y15650D01*
X74150Y19650D02*X74850Y18950D01*
Y16350D01*
X74150Y15650D02*X74850Y16350D01*
X72350Y15650D02*X74150D01*
X72350Y19650D02*X74150D01*
X76050Y19150D02*X76550Y19650D01*
X77550D01*
X78050Y19150D01*
X77550Y15650D02*X78050Y16150D01*
X76550Y15650D02*X77550D01*
X76050Y16150D02*X76550Y15650D01*
Y17850D02*X77550D01*
X78050Y19150D02*Y18350D01*
Y17350D02*Y16150D01*
Y17350D02*X77550Y17850D01*
X78050Y18350D02*X77550Y17850D01*
M02*
