G04 start of page 2 for group 0 idx 0 *
G04 Title: (unknown), top *
G04 Creator: pcb 4.0.2 *
G04 CreationDate: Sat May 14 18:28:01 2022 UTC *
G04 For: railfan *
G04 Format: Gerber/RS-274X *
G04 PCB-Dimensions (mil): 1000.00 1250.00 *
G04 PCB-Coordinate-Origin: lower left *
%MOIN*%
%FSLAX25Y25*%
%LNTOP*%
%ADD22C,0.0320*%
%ADD21C,0.0433*%
%ADD20C,0.0120*%
%ADD19C,0.0260*%
%ADD18C,0.0160*%
%ADD17C,0.0600*%
%ADD16C,0.0640*%
%ADD15C,0.0633*%
%ADD14C,0.0200*%
%ADD13C,0.0150*%
%ADD12C,0.0100*%
%ADD11C,0.0001*%
G54D11*G36*
X36500Y87000D02*X2500D01*
Y122500D01*
X36500D01*
Y87000D01*
G37*
G36*
X63500D02*Y122500D01*
X97500D01*
Y87000D01*
X63500D01*
G37*
G36*
X62500Y82500D02*X70500D01*
Y67500D01*
X67138D01*
X67047Y67556D01*
X66713Y67694D01*
X66361Y67779D01*
X66000Y67807D01*
X65639Y67779D01*
X65287Y67694D01*
X64953Y67556D01*
X64862Y67500D01*
X62500D01*
Y82500D01*
G37*
G36*
X59500Y42000D02*X66500D01*
Y27500D01*
X59500D01*
Y42000D01*
G37*
G54D12*X70500Y51500D02*Y26000D01*
G54D13*X53300Y47700D02*X55500Y45500D01*
Y30500D01*
G54D12*X77500Y38957D02*Y26000D01*
X81405Y22095D01*
Y10500D01*
X70500Y26000D02*X59405Y14905D01*
Y10500D01*
X86500Y61000D02*Y7000D01*
X88500Y62000D02*Y6500D01*
X86500Y7000D02*X84500Y5000D01*
X88500Y6500D02*X85000Y3000D01*
X84500Y5000D02*X74000D01*
X70000Y9000D01*
X85000Y3000D02*X54000D01*
X48000Y9000D01*
X40000Y44500D02*X41900Y42600D01*
X46700D01*
X56299Y61043D02*X82457D01*
X77500Y53957D02*X72957D01*
X70500Y51500D01*
X82457Y61043D02*X84500Y59000D01*
Y48000D01*
X82500Y46000D01*
X77500D01*
X62500Y53957D02*Y46043D01*
X46700Y52900D02*X62500D01*
G54D14*X54900Y55400D02*X46700D01*
G54D12*Y50300D02*X54000D01*
X46700Y58000D02*X50500D01*
G54D13*X46700Y47700D02*X53300D01*
G54D12*X69000Y63500D02*X72500D01*
X74000Y65000D01*
X82500D01*
X86500Y61000D02*X82500Y65000D01*
X66000Y65500D02*X66500Y66000D01*
X72000D01*
X73000Y67000D01*
X83500D01*
X88500Y62000D01*
X43000Y82000D02*X40000Y79000D01*
X39000Y21457D02*Y13000D01*
G54D14*X42500Y84500D02*X37000D01*
G54D12*X42000Y78000D02*X44000Y80000D01*
X51000D01*
X48000Y82000D02*X43000D01*
X51000Y80000D02*X53150Y82150D01*
Y90248D01*
X50000Y90150D02*Y84000D01*
X48000Y82000D01*
G54D14*X43701Y90150D02*Y85701D01*
X42500Y84500D01*
G54D12*X46700Y45200D02*X43300D01*
X42000Y46500D01*
Y78000D01*
X40000Y79000D02*Y44500D01*
G54D14*X56299Y56799D02*X54900Y55400D01*
G54D12*X50500Y58000D02*X51500Y59000D01*
G54D13*X37000Y30500D02*X55500D01*
G54D12*X51000Y62500D02*X53000D01*
X46700Y60500D02*X49000D01*
X51000Y62500D01*
X46700Y63100D02*X49100D01*
X52000Y66000D01*
X53000D01*
G54D14*X56299Y90150D02*Y56799D01*
G54D12*X51600Y69100D02*Y70800D01*
X46700D02*X51600D01*
X46700Y68200D02*X50700D01*
X51600Y69100D01*
X17600Y76000D02*X14500D01*
X11126Y72626D01*
X6693D01*
X17600Y65700D02*X12700D01*
X11752Y64752D01*
X6693D01*
X17600Y60600D02*X22500D01*
X6693Y9634D02*X18095D01*
X39000Y13000D02*X36500Y10500D01*
X29905D01*
G54D13*X17600Y68300D02*X28200D01*
X33500Y63000D01*
Y34000D01*
X37000Y30500D01*
G54D12*X17600Y45300D02*X22700D01*
X24900Y43100D01*
Y27500D01*
X18100D02*Y19600D01*
X16000Y17500D01*
X6701D01*
X6693Y17508D01*
G54D15*X58661Y100878D03*
X41339D03*
G54D16*X93307Y80500D03*
Y72626D03*
Y64752D03*
Y56878D03*
Y49004D03*
Y41130D03*
Y33256D03*
Y25382D03*
Y17508D03*
Y9634D03*
G54D11*G36*
X3493Y83700D02*Y77300D01*
X9893D01*
Y83700D01*
X3493D01*
G37*
G54D16*X6693Y72626D03*
Y64752D03*
Y56878D03*
Y49004D03*
Y41130D03*
Y33256D03*
Y25382D03*
Y17508D03*
Y9634D03*
G54D11*G36*
X57283Y93398D02*X55315D01*
Y87098D01*
X57283D01*
Y93398D01*
G37*
G36*
X57185Y92118D02*X55413D01*
Y88181D01*
X57185D01*
Y92118D01*
G37*
G36*
X54134Y93398D02*X52165D01*
Y87098D01*
X54134D01*
Y93398D01*
G37*
G36*
X54035Y92118D02*X52264D01*
Y88181D01*
X54035D01*
Y92118D01*
G37*
G36*
X70276Y116626D02*X63976D01*
Y108752D01*
X70276D01*
Y116626D01*
G37*
G36*
Y94972D02*X63976D01*
Y87098D01*
X70276D01*
Y94972D01*
G37*
G36*
X74548Y56516D02*Y51398D01*
X80452D01*
Y56516D01*
X74548D01*
G37*
G36*
Y63602D02*Y58484D01*
X80452D01*
Y63602D01*
X74548D01*
G37*
G36*
X68102Y73452D02*X62984D01*
Y67548D01*
X68102D01*
Y73452D01*
G37*
G36*
X59548Y56516D02*Y51398D01*
X65452D01*
Y56516D01*
X59548D01*
G37*
G36*
Y63602D02*Y58484D01*
X65452D01*
Y63602D01*
X59548D01*
G37*
G36*
X61016Y82452D02*X55898D01*
Y76548D01*
X61016D01*
Y82452D01*
G37*
G36*
X68102D02*X62984D01*
Y76548D01*
X68102D01*
Y82452D01*
G37*
G36*
X61016Y73452D02*X55898D01*
Y67548D01*
X61016D01*
Y73452D01*
G37*
G36*
X44800Y43400D02*Y41800D01*
X48600D01*
Y43400D01*
X44800D01*
G37*
G36*
Y46000D02*Y44400D01*
X48600D01*
Y46000D01*
X44800D01*
G37*
G36*
Y48500D02*Y46900D01*
X48600D01*
Y48500D01*
X44800D01*
G37*
G36*
Y51100D02*Y49500D01*
X48600D01*
Y51100D01*
X44800D01*
G37*
G36*
X59548Y41516D02*Y36398D01*
X65452D01*
Y41516D01*
X59548D01*
G37*
G36*
X58059Y33452D02*X52941D01*
Y27548D01*
X58059D01*
Y33452D01*
G37*
G36*
X65145D02*X60027D01*
Y27548D01*
X65145D01*
Y33452D01*
G37*
G36*
X74548Y41516D02*Y36398D01*
X80452D01*
Y41516D01*
X74548D01*
G37*
G36*
X59548Y48602D02*Y43484D01*
X65452D01*
Y48602D01*
X59548D01*
G37*
G36*
X74548D02*Y43484D01*
X80452D01*
Y48602D01*
X74548D01*
G37*
G36*
X50154Y14240D02*X45036D01*
Y6760D01*
X50154D01*
Y14240D01*
G37*
G36*
X61964D02*X56846D01*
Y6760D01*
X61964D01*
Y14240D01*
G37*
G36*
X72154D02*X67036D01*
Y6760D01*
X72154D01*
Y14240D01*
G37*
G36*
X83964D02*X78846D01*
Y6760D01*
X83964D01*
Y14240D01*
G37*
G36*
X20654D02*X15536D01*
Y6760D01*
X20654D01*
Y14240D01*
G37*
G36*
X32464D02*X27346D01*
Y6760D01*
X32464D01*
Y14240D01*
G37*
G54D17*X18100Y27500D03*
G54D11*G36*
X36048Y24016D02*Y18898D01*
X41952D01*
Y24016D01*
X36048D01*
G37*
G36*
Y31102D02*Y25984D01*
X41952D01*
Y31102D01*
X36048D01*
G37*
G54D17*X24900Y27500D03*
G54D11*G36*
Y30500D02*X21900D01*
Y24500D01*
X24900D01*
Y30500D01*
G37*
G36*
X21100D02*X18100D01*
Y24500D01*
X21100D01*
Y30500D01*
G37*
G36*
X50984Y93398D02*X49016D01*
Y87098D01*
X50984D01*
Y93398D01*
G37*
G36*
X50886Y92118D02*X49114D01*
Y88181D01*
X50886D01*
Y92118D01*
G37*
G36*
X47835Y93398D02*X45866D01*
Y87098D01*
X47835D01*
Y93398D01*
G37*
G36*
X47736Y92118D02*X45965D01*
Y88181D01*
X47736D01*
Y92118D01*
G37*
G36*
X44685Y93398D02*X42717D01*
Y87098D01*
X44685D01*
Y93398D01*
G37*
G36*
X44587Y92118D02*X42815D01*
Y88181D01*
X44587D01*
Y92118D01*
G37*
G36*
X36024Y94972D02*X29724D01*
Y87098D01*
X36024D01*
Y94972D01*
G37*
G36*
Y116626D02*X29724D01*
Y108752D01*
X36024D01*
Y116626D01*
G37*
G54D18*X16500Y76000D02*X18700D01*
G54D11*G36*
X15700Y74200D02*Y72600D01*
X19500D01*
Y74200D01*
X15700D01*
G37*
G36*
Y71700D02*Y70100D01*
X19500D01*
Y71700D01*
X15700D01*
G37*
G36*
Y69100D02*Y67500D01*
X19500D01*
Y69100D01*
X15700D01*
G37*
G36*
Y66500D02*Y64900D01*
X19500D01*
Y66500D01*
X15700D01*
G37*
G36*
Y64000D02*Y62400D01*
X19500D01*
Y64000D01*
X15700D01*
G37*
G36*
Y61400D02*Y59800D01*
X19500D01*
Y61400D01*
X15700D01*
G37*
G36*
Y58900D02*Y57300D01*
X19500D01*
Y58900D01*
X15700D01*
G37*
G36*
Y56300D02*Y54700D01*
X19500D01*
Y56300D01*
X15700D01*
G37*
G36*
Y53700D02*Y52100D01*
X19500D01*
Y53700D01*
X15700D01*
G37*
G36*
Y51200D02*Y49600D01*
X19500D01*
Y51200D01*
X15700D01*
G37*
G36*
Y48600D02*Y47000D01*
X19500D01*
Y48600D01*
X15700D01*
G37*
G36*
Y46100D02*Y44500D01*
X19500D01*
Y46100D01*
X15700D01*
G37*
G36*
Y43500D02*Y41900D01*
X19500D01*
Y43500D01*
X15700D01*
G37*
G36*
X44800Y53700D02*Y52100D01*
X48600D01*
Y53700D01*
X44800D01*
G37*
G36*
Y56200D02*Y54600D01*
X48600D01*
Y56200D01*
X44800D01*
G37*
G36*
Y58800D02*Y57200D01*
X48600D01*
Y58800D01*
X44800D01*
G37*
G36*
Y61300D02*Y59700D01*
X48600D01*
Y61300D01*
X44800D01*
G37*
G36*
Y63900D02*Y62300D01*
X48600D01*
Y63900D01*
X44800D01*
G37*
G36*
Y66500D02*Y64900D01*
X48600D01*
Y66500D01*
X44800D01*
G37*
G36*
Y69000D02*Y67400D01*
X48600D01*
Y69000D01*
X44800D01*
G37*
G36*
Y71600D02*Y70000D01*
X48600D01*
Y71600D01*
X44800D01*
G37*
G36*
Y74100D02*Y72500D01*
X48600D01*
Y74100D01*
X44800D01*
G37*
G36*
Y76700D02*Y75100D01*
X48600D01*
Y76700D01*
X44800D01*
G37*
G54D19*X51600Y70800D03*
X54000Y50300D03*
X53000Y62500D03*
Y66000D03*
X40500Y84500D03*
X37000D03*
X22500Y60600D03*
X61500Y35000D03*
X64500D03*
X51500Y59000D03*
X65500Y75000D03*
X68500D03*
X66000Y65500D03*
X69000Y63500D03*
G54D20*G54D21*G54D22*M02*
