G04 start of page 9 for group -4078 idx -4078 *
G04 Title: (unknown), bottomsilk *
G04 Creator: pcb 4.0.2 *
G04 CreationDate: Sat May 14 18:28:01 2022 UTC *
G04 For: railfan *
G04 Format: Gerber/RS-274X *
G04 PCB-Dimensions (mil): 1000.00 1250.00 *
G04 PCB-Coordinate-Origin: lower left *
%MOIN*%
%FSLAX25Y25*%
%LNBOTTOMSILK*%
%ADD45C,0.0080*%
G54D45*X72500Y115500D02*X73800D01*
X74500Y116200D02*X73800Y115500D01*
X74500Y116200D02*Y118800D01*
X73800Y119500D01*
X72500D02*X73800D01*
X71300Y115500D02*Y119500D01*
Y117500D02*X69300Y119500D01*
X71300Y117500D02*X69300Y115500D01*
X66100Y119500D02*X68100D01*
X67100Y115500D02*Y119500D01*
X62900Y117500D02*X64900D01*
X61700Y116000D02*Y119500D01*
Y116000D02*X61200Y115500D01*
X60200D02*X61200D01*
X60200D02*X59700Y116000D01*
Y119500D01*
X56500D02*X56000Y119000D01*
X56500Y119500D02*X58000D01*
X58500Y119000D02*X58000Y119500D01*
X58500Y118000D02*Y119000D01*
Y118000D02*X58000Y117500D01*
X56500D02*X58000D01*
X56500D02*X56000Y117000D01*
Y116000D02*Y117000D01*
X56500Y115500D02*X56000Y116000D01*
X56500Y115500D02*X58000D01*
X58500Y116000D02*X58000Y115500D01*
X52800D02*X54800D01*
X52800D02*X52300Y116000D01*
Y117200D01*
X52800Y117700D02*X52300Y117200D01*
X52800Y117700D02*X54300D01*
Y115500D02*Y119500D01*
X52800D02*X54800D01*
X52800D02*X52300Y119000D01*
Y118200D02*Y119000D01*
X52800Y117700D02*X52300Y118200D01*
X51100Y115500D02*X48600Y119500D01*
X51100D02*X48600Y115500D01*
X45400D02*X47400D01*
X45400D02*X44900Y116000D01*
Y117200D01*
X45400Y117700D02*X44900Y117200D01*
X45400Y117700D02*X46900D01*
Y115500D02*Y119500D01*
X45400D02*X47400D01*
X45400D02*X44900Y119000D01*
Y118200D02*Y119000D01*
X45400Y117700D02*X44900Y118200D01*
X42200Y117700D02*X43700D01*
X41700Y115500D02*X43700D01*
Y119500D01*
X41700D02*X43700D01*
X39000Y117700D02*X40500D01*
X38500Y115500D02*X40500D01*
Y119500D01*
X38500D02*X40500D01*
X35500Y117500D02*X34500Y115500D01*
X33500Y117500D02*X34500Y115500D01*
X32300Y118700D02*X31500Y119500D01*
Y115500D02*Y119500D01*
X30800Y115500D02*X32300D01*
X29100D02*X29600D01*
X27900Y116000D02*X27400Y115500D01*
X27900Y116000D02*Y119000D01*
X27400Y119500D01*
X26400D02*X27400D01*
X26400D02*X25900Y119000D01*
Y116000D02*Y119000D01*
X26400Y115500D02*X25900Y116000D01*
X26400Y115500D02*X27400D01*
X27900Y116500D02*X25900Y118500D01*
X74500Y108500D02*X74000Y108000D01*
X74500Y111500D02*X74000Y112000D01*
X74500Y108500D02*Y111500D01*
X70800Y108000D02*X72100D01*
X72800Y108700D02*X72100Y108000D01*
X72800Y108700D02*Y111300D01*
X72100Y112000D01*
X70800D02*X72100D01*
X69600D02*X69100Y111500D01*
Y108500D02*Y111500D01*
X69600Y108000D02*X69100Y108500D01*
X67900Y111500D02*X67400Y112000D01*
X65900D02*X67400D01*
X65900D02*X65400Y111500D01*
Y110500D02*Y111500D01*
X67900Y108000D02*X65400Y110500D01*
Y108000D02*X67900D01*
X64200Y108500D02*X63700Y108000D01*
X64200Y108500D02*Y111500D01*
X63700Y112000D01*
X62700D02*X63700D01*
X62700D02*X62200Y111500D01*
Y108500D02*Y111500D01*
X62700Y108000D02*X62200Y108500D01*
X62700Y108000D02*X63700D01*
X64200Y109000D02*X62200Y111000D01*
X61000Y111500D02*X60500Y112000D01*
X59000D02*X60500D01*
X59000D02*X58500Y111500D01*
Y110500D02*Y111500D01*
X61000Y108000D02*X58500Y110500D01*
Y108000D02*X61000D01*
X57300Y111500D02*X56800Y112000D01*
X55300D02*X56800D01*
X55300D02*X54800Y111500D01*
Y110500D02*Y111500D01*
X57300Y108000D02*X54800Y110500D01*
Y108000D02*X57300D01*
X48000D02*X49300D01*
X50000Y108700D02*X49300Y108000D01*
X50000Y108700D02*Y111300D01*
X49300Y112000D01*
X48000D02*X49300D01*
X44800Y108000D02*X46100D01*
X46800Y108700D02*X46100Y108000D01*
X46800Y108700D02*Y111300D01*
X46100Y112000D01*
X44800D02*X46100D01*
X39800Y108000D02*X41800D01*
X39800D02*X39300Y108500D01*
Y109700D01*
X39800Y110200D02*X39300Y109700D01*
X39800Y110200D02*X41300D01*
Y108000D02*Y112000D01*
X39800D02*X41800D01*
X39800D02*X39300Y111500D01*
Y110700D02*Y111500D01*
X39800Y110200D02*X39300Y110700D01*
X38100Y112000D02*X37100Y110000D01*
X36100Y112000D01*
X37100Y108000D02*Y110000D01*
X32900D02*X34900D01*
X29700Y112000D02*X29200Y111500D01*
X29700Y112000D02*X31200D01*
X31700Y111500D02*X31200Y112000D01*
X31700Y110500D02*Y111500D01*
Y110500D02*X31200Y110000D01*
X29700D02*X31200D01*
X29700D02*X29200Y109500D01*
Y108500D02*Y109500D01*
X29700Y108000D02*X29200Y108500D01*
X29700Y108000D02*X31200D01*
X31700Y108500D02*X31200Y108000D01*
X28000D02*Y111000D01*
X27300Y112000D01*
X26200D02*X27300D01*
X26200D02*X25500Y111000D01*
Y108000D02*Y111000D01*
Y110000D02*X28000D01*
X81000Y93500D02*X82000D01*
X81500Y89500D02*Y93500D01*
X81000Y89500D02*X82000D01*
X79800Y90000D02*Y91000D01*
X79300Y91500D01*
X78300D02*X79300D01*
X78300D02*X77800Y91000D01*
Y90000D02*Y91000D01*
X78300Y89500D02*X77800Y90000D01*
X78300Y89500D02*X79300D01*
X79800Y90000D02*X79300Y89500D01*
X76600Y90000D02*Y91500D01*
Y90000D02*X76100Y89500D01*
X75600D02*X76100D01*
X75600D02*X75100Y90000D01*
Y91500D01*
Y90000D02*X74600Y89500D01*
X74100D02*X74600D01*
X74100D02*X73600Y90000D01*
Y91500D01*
X70900D02*X70400Y91000D01*
X70900Y91500D02*X71900D01*
X72400Y91000D02*X71900Y91500D01*
X72400Y90000D02*Y91000D01*
Y90000D02*X71900Y89500D01*
X70400Y90000D02*Y91500D01*
Y90000D02*X69900Y89500D01*
X70900D02*X71900D01*
X70900D02*X70400Y90000D01*
X64900Y93500D02*X64400Y93000D01*
X64900Y93500D02*X66400D01*
X66900Y93000D02*X66400Y93500D01*
X66900Y92000D02*Y93000D01*
Y92000D02*X66400Y91500D01*
X64900D02*X66400D01*
X64900D02*X64400Y91000D01*
Y90000D02*Y91000D01*
X64900Y89500D02*X64400Y90000D01*
X64900Y89500D02*X66400D01*
X66900Y90000D02*X66400Y89500D01*
X61200Y91500D02*X62700D01*
X63200Y91000D02*X62700Y91500D01*
X63200Y90000D02*Y91000D01*
Y90000D02*X62700Y89500D01*
X61200D02*X62700D01*
X58500Y91500D02*X58000Y91000D01*
X58500Y91500D02*X59500D01*
X60000Y91000D02*X59500Y91500D01*
X60000Y90000D02*Y91000D01*
Y90000D02*X59500Y89500D01*
X58000Y90000D02*Y91500D01*
Y90000D02*X57500Y89500D01*
X58500D02*X59500D01*
X58500D02*X58000Y90000D01*
X56300D02*Y93500D01*
Y90000D02*X55800Y89500D01*
X52800D02*X54300D01*
X54800Y90000D02*X54300Y89500D01*
X54800Y90000D02*Y91000D01*
X54300Y91500D01*
X53300D02*X54300D01*
X53300D02*X52800Y91000D01*
Y90500D02*X54800D01*
X52800D02*Y91000D01*
X49600Y89500D02*Y93500D01*
X50100Y89500D02*X49600Y90000D01*
X50100Y89500D02*X51100D01*
X51600Y90000D02*X51100Y89500D01*
X51600Y90000D02*Y91000D01*
X51100Y91500D01*
X50100D02*X51100D01*
X50100D02*X49600Y91000D01*
X45100Y91700D02*X46600D01*
X44600Y89500D02*X46600D01*
Y93500D01*
X44600D02*X46600D01*
X42900Y89500D02*Y91000D01*
X42400Y91500D01*
X41900D02*X42400D01*
X41900D02*X41400Y91000D01*
Y89500D02*Y91000D01*
X43400Y91500D02*X42900Y91000D01*
X38700Y91500D02*X38200Y91000D01*
X38700Y91500D02*X39700D01*
X40200Y91000D02*X39700Y91500D01*
X40200Y90000D02*Y91000D01*
Y90000D02*X39700Y89500D01*
X38700D02*X39700D01*
X38700D02*X38200Y90000D01*
X40200Y88500D02*X39700Y88000D01*
X38700D02*X39700D01*
X38700D02*X38200Y88500D01*
Y91500D01*
X37000Y92400D02*Y92500D01*
Y89500D02*Y91000D01*
X35500Y89500D02*Y91000D01*
X35000Y91500D01*
X34500D02*X35000D01*
X34500D02*X34000Y91000D01*
Y89500D02*Y91000D01*
X36000Y91500D02*X35500Y91000D01*
X30800Y89500D02*X32300D01*
X32800Y90000D02*X32300Y89500D01*
X32800Y90000D02*Y91000D01*
X32300Y91500D01*
X31300D02*X32300D01*
X31300D02*X30800Y91000D01*
Y90500D02*X32800D01*
X30800D02*Y91000D01*
X27600Y89500D02*X29100D01*
X29600Y90000D02*X29100Y89500D01*
X29600Y90000D02*Y91000D01*
X29100Y91500D01*
X28100D02*X29100D01*
X28100D02*X27600Y91000D01*
Y90500D02*X29600D01*
X27600D02*Y91000D01*
X25900Y89500D02*Y91000D01*
X25400Y91500D01*
X24400D02*X25400D01*
X26400D02*X25900Y91000D01*
X23200Y92400D02*Y92500D01*
Y89500D02*Y91000D01*
X21700Y89500D02*Y91000D01*
X21200Y91500D01*
X20700D02*X21200D01*
X20700D02*X20200Y91000D01*
Y89500D02*Y91000D01*
X22200Y91500D02*X21700Y91000D01*
X17500Y91500D02*X17000Y91000D01*
X17500Y91500D02*X18500D01*
X19000Y91000D02*X18500Y91500D01*
X19000Y90000D02*Y91000D01*
Y90000D02*X18500Y89500D01*
X17500D02*X18500D01*
X17500D02*X17000Y90000D01*
X19000Y88500D02*X18500Y88000D01*
X17500D02*X18500D01*
X17500D02*X17000Y88500D01*
Y91500D01*
M02*
