G04 start of page 12 for group -3984 idx -3984 *
G04 Title: (unknown), fab *
G04 Creator: pcb 4.0.2 *
G04 CreationDate: Sat May 14 18:28:01 2022 UTC *
G04 For: railfan *
G04 Format: Gerber/RS-274X *
G04 PCB-Dimensions (mil): 1000.00 1250.00 *
G04 PCB-Coordinate-Origin: lower left *
%MOIN*%
%FSLAX25Y25*%
%LNFAB*%
%ADD52C,0.0100*%
%ADD51C,0.0075*%
%ADD50C,0.0060*%
%ADD49C,0.0001*%
G54D49*G36*
X57461Y102644D02*X60427Y99678D01*
X59861Y99112D01*
X56896Y102078D01*
X57461Y102644D01*
G37*
G36*
X56896Y99678D02*X59861Y102644D01*
X60427Y102078D01*
X57461Y99112D01*
X56896Y99678D01*
G37*
G36*
X40139Y102644D02*X43104Y99678D01*
X42539Y99112D01*
X39573Y102078D01*
X40139Y102644D01*
G37*
G36*
X39573Y99678D02*X42539Y102644D01*
X43104Y102078D01*
X40139Y99112D01*
X39573Y99678D01*
G37*
G36*
X13800Y153016D02*X16766Y150050D01*
X16200Y149484D01*
X13234Y152450D01*
X13800Y153016D01*
G37*
G36*
X13234Y150050D02*X16200Y153016D01*
X16766Y152450D01*
X13800Y149484D01*
X13234Y150050D01*
G37*
G54D50*X135000Y153500D02*X136500Y150500D01*
X138000Y153500D01*
X136500Y150500D02*Y147500D01*
X139800Y150800D02*X142050D01*
X139800Y147500D02*X142800D01*
X139800Y153500D02*Y147500D01*
Y153500D02*X142800D01*
X147600D02*X148350Y152750D01*
X145350Y153500D02*X147600D01*
X144600Y152750D02*X145350Y153500D01*
X144600Y152750D02*Y151250D01*
X145350Y150500D01*
X147600D01*
X148350Y149750D01*
Y148250D01*
X147600Y147500D02*X148350Y148250D01*
X145350Y147500D02*X147600D01*
X144600Y148250D02*X145350Y147500D01*
X98000Y152750D02*X98750Y153500D01*
X101000D01*
X101750Y152750D01*
Y151250D01*
X98000Y147500D02*X101750Y151250D01*
X98000Y147500D02*X101750D01*
X45000Y148250D02*X45750Y147500D01*
X45000Y152750D02*Y148250D01*
Y152750D02*X45750Y153500D01*
X47250D01*
X48000Y152750D01*
Y148250D01*
X47250Y147500D02*X48000Y148250D01*
X45750Y147500D02*X47250D01*
X45000Y149000D02*X48000Y152000D01*
X49800Y147500D02*X50550D01*
X52350Y148250D02*X53100Y147500D01*
X52350Y152750D02*Y148250D01*
Y152750D02*X53100Y153500D01*
X54600D01*
X55350Y152750D01*
Y148250D01*
X54600Y147500D02*X55350Y148250D01*
X53100Y147500D02*X54600D01*
X52350Y149000D02*X55350Y152000D01*
X57150Y149750D02*X60150Y153500D01*
X57150Y149750D02*X60900D01*
X60150Y153500D02*Y147500D01*
X62700Y152750D02*X63450Y153500D01*
X64950D01*
X65700Y152750D01*
X64950Y147500D02*X65700Y148250D01*
X63450Y147500D02*X64950D01*
X62700Y148250D02*X63450Y147500D01*
Y150800D02*X64950D01*
X65700Y152750D02*Y151550D01*
Y150050D02*Y148250D01*
Y150050D02*X64950Y150800D01*
X65700Y151550D02*X64950Y150800D01*
X6693Y82100D02*Y78900D01*
X5093Y80500D02*X8293D01*
X6693Y74226D02*Y71026D01*
X5093Y72626D02*X8293D01*
X6693Y66352D02*Y63152D01*
X5093Y64752D02*X8293D01*
X6693Y58478D02*Y55278D01*
X5093Y56878D02*X8293D01*
X6693Y50604D02*Y47404D01*
X5093Y49004D02*X8293D01*
X6693Y42730D02*Y39530D01*
X5093Y41130D02*X8293D01*
X6693Y34856D02*Y31656D01*
X5093Y33256D02*X8293D01*
X6693Y26982D02*Y23782D01*
X5093Y25382D02*X8293D01*
X6693Y19108D02*Y15908D01*
X5093Y17508D02*X8293D01*
X6693Y11234D02*Y8034D01*
X5093Y9634D02*X8293D01*
X93307Y82100D02*Y78900D01*
X91707Y80500D02*X94907D01*
X93307Y74226D02*Y71026D01*
X91707Y72626D02*X94907D01*
X93307Y66352D02*Y63152D01*
X91707Y64752D02*X94907D01*
X93307Y58478D02*Y55278D01*
X91707Y56878D02*X94907D01*
X93307Y50604D02*Y47404D01*
X91707Y49004D02*X94907D01*
X93307Y42730D02*Y39530D01*
X91707Y41130D02*X94907D01*
X93307Y34856D02*Y31656D01*
X91707Y33256D02*X94907D01*
X93307Y26982D02*Y23782D01*
X91707Y25382D02*X94907D01*
X93307Y19108D02*Y15908D01*
X91707Y17508D02*X94907D01*
X93307Y11234D02*Y8034D01*
X91707Y9634D02*X94907D01*
X15000Y167850D02*Y164650D01*
X13400Y166250D02*X16600D01*
X135000Y168500D02*X136500Y165500D01*
X138000Y168500D01*
X136500Y165500D02*Y162500D01*
X139800Y165800D02*X142050D01*
X139800Y162500D02*X142800D01*
X139800Y168500D02*Y162500D01*
Y168500D02*X142800D01*
X147600D02*X148350Y167750D01*
X145350Y168500D02*X147600D01*
X144600Y167750D02*X145350Y168500D01*
X144600Y167750D02*Y166250D01*
X145350Y165500D01*
X147600D01*
X148350Y164750D01*
Y163250D01*
X147600Y162500D02*X148350Y163250D01*
X145350Y162500D02*X147600D01*
X144600Y163250D02*X145350Y162500D01*
X98000Y167750D02*X98750Y168500D01*
X101000D01*
X101750Y167750D01*
Y166250D01*
X98000Y162500D02*X101750Y166250D01*
X98000Y162500D02*X101750D01*
X103550Y163250D02*X104300Y162500D01*
X103550Y167750D02*Y163250D01*
Y167750D02*X104300Y168500D01*
X105800D01*
X106550Y167750D01*
Y163250D01*
X105800Y162500D02*X106550Y163250D01*
X104300Y162500D02*X105800D01*
X103550Y164000D02*X106550Y167000D01*
X45000Y163250D02*X45750Y162500D01*
X45000Y167750D02*Y163250D01*
Y167750D02*X45750Y168500D01*
X47250D01*
X48000Y167750D01*
Y163250D01*
X47250Y162500D02*X48000Y163250D01*
X45750Y162500D02*X47250D01*
X45000Y164000D02*X48000Y167000D01*
X49800Y162500D02*X50550D01*
X52350Y163250D02*X53100Y162500D01*
X52350Y167750D02*Y163250D01*
Y167750D02*X53100Y168500D01*
X54600D01*
X55350Y167750D01*
Y163250D01*
X54600Y162500D02*X55350Y163250D01*
X53100Y162500D02*X54600D01*
X52350Y164000D02*X55350Y167000D01*
X57150Y167750D02*X57900Y168500D01*
X59400D01*
X60150Y167750D01*
X59400Y162500D02*X60150Y163250D01*
X57900Y162500D02*X59400D01*
X57150Y163250D02*X57900Y162500D01*
Y165800D02*X59400D01*
X60150Y167750D02*Y166550D01*
Y165050D02*Y163250D01*
Y165050D02*X59400Y165800D01*
X60150Y166550D02*X59400Y165800D01*
X61950Y167750D02*X62700Y168500D01*
X64950D01*
X65700Y167750D01*
Y166250D01*
X61950Y162500D02*X65700Y166250D01*
X61950Y162500D02*X65700D01*
X40500Y84500D02*Y82900D01*
Y84500D02*X41887Y85300D01*
X40500Y84500D02*X39113Y85300D01*
X37000Y84500D02*Y82900D01*
Y84500D02*X38387Y85300D01*
X37000Y84500D02*X35613Y85300D01*
X22500Y60600D02*Y59000D01*
Y60600D02*X23887Y61400D01*
X22500Y60600D02*X21113Y61400D01*
X51600Y70800D02*Y69200D01*
Y70800D02*X52987Y71600D01*
X51600Y70800D02*X50213Y71600D01*
X54000Y50300D02*Y48700D01*
Y50300D02*X55387Y51100D01*
X54000Y50300D02*X52613Y51100D01*
X65500Y75000D02*Y73400D01*
Y75000D02*X66887Y75800D01*
X65500Y75000D02*X64113Y75800D01*
X68500Y75000D02*Y73400D01*
Y75000D02*X69887Y75800D01*
X68500Y75000D02*X67113Y75800D01*
X61500Y35000D02*Y33400D01*
Y35000D02*X62887Y35800D01*
X61500Y35000D02*X60113Y35800D01*
X64500Y35000D02*Y33400D01*
Y35000D02*X65887Y35800D01*
X64500Y35000D02*X63113Y35800D01*
X51500Y59000D02*Y57400D01*
Y59000D02*X52887Y59800D01*
X51500Y59000D02*X50113Y59800D01*
X53000Y62500D02*Y60900D01*
Y62500D02*X54387Y63300D01*
X53000Y62500D02*X51613Y63300D01*
X53000Y66000D02*Y64400D01*
Y66000D02*X54387Y66800D01*
X53000Y66000D02*X51613Y66800D01*
X66000Y65500D02*Y63900D01*
Y65500D02*X67387Y66300D01*
X66000Y65500D02*X64613Y66300D01*
X69000Y63500D02*Y61900D01*
Y63500D02*X70387Y64300D01*
X69000Y63500D02*X67613Y64300D01*
X15000Y181250D02*Y179650D01*
Y181250D02*X16387Y182050D01*
X15000Y181250D02*X13613Y182050D01*
X135000Y183500D02*X136500Y180500D01*
X138000Y183500D01*
X136500Y180500D02*Y177500D01*
X139800Y180800D02*X142050D01*
X139800Y177500D02*X142800D01*
X139800Y183500D02*Y177500D01*
Y183500D02*X142800D01*
X147600D02*X148350Y182750D01*
X145350Y183500D02*X147600D01*
X144600Y182750D02*X145350Y183500D01*
X144600Y182750D02*Y181250D01*
X145350Y180500D01*
X147600D01*
X148350Y179750D01*
Y178250D01*
X147600Y177500D02*X148350Y178250D01*
X145350Y177500D02*X147600D01*
X144600Y178250D02*X145350Y177500D01*
X98000Y182300D02*X99200Y183500D01*
Y177500D01*
X98000D02*X100250D01*
X102050Y179750D02*X105050Y183500D01*
X102050Y179750D02*X105800D01*
X105050Y183500D02*Y177500D01*
X45000Y178250D02*X45750Y177500D01*
X45000Y182750D02*Y178250D01*
Y182750D02*X45750Y183500D01*
X47250D01*
X48000Y182750D01*
Y178250D01*
X47250Y177500D02*X48000Y178250D01*
X45750Y177500D02*X47250D01*
X45000Y179000D02*X48000Y182000D01*
X49800Y177500D02*X50550D01*
X52350Y178250D02*X53100Y177500D01*
X52350Y182750D02*Y178250D01*
Y182750D02*X53100Y183500D01*
X54600D01*
X55350Y182750D01*
Y178250D01*
X54600Y177500D02*X55350Y178250D01*
X53100Y177500D02*X54600D01*
X52350Y179000D02*X55350Y182000D01*
X57150Y182300D02*X58350Y183500D01*
Y177500D01*
X57150D02*X59400D01*
X61200Y182750D02*X61950Y183500D01*
X64200D01*
X64950Y182750D01*
Y181250D01*
X61200Y177500D02*X64950Y181250D01*
X61200Y177500D02*X64950D01*
X3000Y198500D02*X3750Y197750D01*
X750Y198500D02*X3000D01*
X0Y197750D02*X750Y198500D01*
X0Y197750D02*Y196250D01*
X750Y195500D01*
X3000D01*
X3750Y194750D01*
Y193250D01*
X3000Y192500D02*X3750Y193250D01*
X750Y192500D02*X3000D01*
X0Y193250D02*X750Y192500D01*
X5550Y195500D02*Y193250D01*
X6300Y192500D01*
X8550Y195500D02*Y191000D01*
X7800Y190250D02*X8550Y191000D01*
X6300Y190250D02*X7800D01*
X5550Y191000D02*X6300Y190250D01*
Y192500D02*X7800D01*
X8550Y193250D01*
X11100Y194750D02*Y192500D01*
Y194750D02*X11850Y195500D01*
X12600D01*
X13350Y194750D01*
Y192500D01*
Y194750D02*X14100Y195500D01*
X14850D01*
X15600Y194750D01*
Y192500D01*
X10350Y195500D02*X11100Y194750D01*
X17400Y198500D02*Y192500D01*
Y193250D02*X18150Y192500D01*
X19650D01*
X20400Y193250D01*
Y194750D02*Y193250D01*
X19650Y195500D02*X20400Y194750D01*
X18150Y195500D02*X19650D01*
X17400Y194750D02*X18150Y195500D01*
X22200Y194750D02*Y193250D01*
Y194750D02*X22950Y195500D01*
X24450D01*
X25200Y194750D01*
Y193250D01*
X24450Y192500D02*X25200Y193250D01*
X22950Y192500D02*X24450D01*
X22200Y193250D02*X22950Y192500D01*
X27000Y198500D02*Y193250D01*
X27750Y192500D01*
X0Y189250D02*X29250D01*
X41750Y198500D02*Y192500D01*
X43700Y198500D02*X44750Y197450D01*
Y193550D01*
X43700Y192500D02*X44750Y193550D01*
X41000Y192500D02*X43700D01*
X41000Y198500D02*X43700D01*
G54D51*X46550Y197000D02*Y196850D01*
G54D50*Y194750D02*Y192500D01*
X50300Y195500D02*X51050Y194750D01*
X48800Y195500D02*X50300D01*
X48050Y194750D02*X48800Y195500D01*
X48050Y194750D02*Y193250D01*
X48800Y192500D01*
X51050Y195500D02*Y193250D01*
X51800Y192500D01*
X48800D02*X50300D01*
X51050Y193250D01*
X54350Y194750D02*Y192500D01*
Y194750D02*X55100Y195500D01*
X55850D01*
X56600Y194750D01*
Y192500D01*
Y194750D02*X57350Y195500D01*
X58100D01*
X58850Y194750D01*
Y192500D01*
X53600Y195500D02*X54350Y194750D01*
X60650Y192500D02*X61400D01*
X65900Y193250D02*X66650Y192500D01*
X65900Y197750D02*X66650Y198500D01*
X65900Y197750D02*Y193250D01*
X68450Y198500D02*X69950D01*
X69200D02*Y192500D01*
X68450D02*X69950D01*
X72500Y194750D02*Y192500D01*
Y194750D02*X73250Y195500D01*
X74000D01*
X74750Y194750D01*
Y192500D01*
X71750Y195500D02*X72500Y194750D01*
X77300Y195500D02*X79550D01*
X76550Y194750D02*X77300Y195500D01*
X76550Y194750D02*Y193250D01*
X77300Y192500D01*
X79550D01*
X81350Y198500D02*Y192500D01*
Y194750D02*X82100Y195500D01*
X83600D01*
X84350Y194750D01*
Y192500D01*
X86150Y198500D02*X86900Y197750D01*
Y193250D01*
X86150Y192500D02*X86900Y193250D01*
X41000Y189250D02*X88700D01*
X96050Y192500D02*X98000D01*
X95000Y193550D02*X96050Y192500D01*
X95000Y197450D02*Y193550D01*
Y197450D02*X96050Y198500D01*
X98000D01*
X99800Y194750D02*Y193250D01*
Y194750D02*X100550Y195500D01*
X102050D01*
X102800Y194750D01*
Y193250D01*
X102050Y192500D02*X102800Y193250D01*
X100550Y192500D02*X102050D01*
X99800Y193250D02*X100550Y192500D01*
X104600Y195500D02*Y193250D01*
X105350Y192500D01*
X106850D01*
X107600Y193250D01*
Y195500D02*Y193250D01*
X110150Y194750D02*Y192500D01*
Y194750D02*X110900Y195500D01*
X111650D01*
X112400Y194750D01*
Y192500D01*
X109400Y195500D02*X110150Y194750D01*
X114950Y198500D02*Y193250D01*
X115700Y192500D01*
X114200Y196250D02*X115700D01*
X95000Y189250D02*X117200D01*
X130750Y198500D02*Y192500D01*
X130000Y198500D02*X133000D01*
X133750Y197750D01*
Y196250D01*
X133000Y195500D02*X133750Y196250D01*
X130750Y195500D02*X133000D01*
X135550Y198500D02*Y193250D01*
X136300Y192500D01*
X140050Y195500D02*X140800Y194750D01*
X138550Y195500D02*X140050D01*
X137800Y194750D02*X138550Y195500D01*
X137800Y194750D02*Y193250D01*
X138550Y192500D01*
X140800Y195500D02*Y193250D01*
X141550Y192500D01*
X138550D02*X140050D01*
X140800Y193250D01*
X144100Y198500D02*Y193250D01*
X144850Y192500D01*
X143350Y196250D02*X144850D01*
X147100Y192500D02*X149350D01*
X146350Y193250D02*X147100Y192500D01*
X146350Y194750D02*Y193250D01*
Y194750D02*X147100Y195500D01*
X148600D01*
X149350Y194750D01*
X146350Y194000D02*X149350D01*
Y194750D02*Y194000D01*
X154150Y198500D02*Y192500D01*
X153400D02*X154150Y193250D01*
X151900Y192500D02*X153400D01*
X151150Y193250D02*X151900Y192500D01*
X151150Y194750D02*Y193250D01*
Y194750D02*X151900Y195500D01*
X153400D01*
X154150Y194750D01*
X157450Y195500D02*Y194750D01*
Y193250D02*Y192500D01*
X155950Y197750D02*Y197000D01*
Y197750D02*X156700Y198500D01*
X158200D01*
X158950Y197750D01*
Y197000D01*
X157450Y195500D02*X158950Y197000D01*
X130000Y189250D02*X160750D01*
X0Y213500D02*X3000D01*
X1500D02*Y207500D01*
X4800Y213500D02*Y207500D01*
Y209750D02*X5550Y210500D01*
X7050D01*
X7800Y209750D01*
Y207500D01*
X10350D02*X12600D01*
X9600Y208250D02*X10350Y207500D01*
X9600Y209750D02*Y208250D01*
Y209750D02*X10350Y210500D01*
X11850D01*
X12600Y209750D01*
X9600Y209000D02*X12600D01*
Y209750D02*Y209000D01*
X15150Y209750D02*Y207500D01*
Y209750D02*X15900Y210500D01*
X17400D01*
X14400D02*X15150Y209750D01*
X19950Y207500D02*X22200D01*
X19200Y208250D02*X19950Y207500D01*
X19200Y209750D02*Y208250D01*
Y209750D02*X19950Y210500D01*
X21450D01*
X22200Y209750D01*
X19200Y209000D02*X22200D01*
Y209750D02*Y209000D01*
X28950Y210500D02*X29700Y209750D01*
X27450Y210500D02*X28950D01*
X26700Y209750D02*X27450Y210500D01*
X26700Y209750D02*Y208250D01*
X27450Y207500D01*
X29700Y210500D02*Y208250D01*
X30450Y207500D01*
X27450D02*X28950D01*
X29700Y208250D01*
X33000Y209750D02*Y207500D01*
Y209750D02*X33750Y210500D01*
X35250D01*
X32250D02*X33000Y209750D01*
X37800Y207500D02*X40050D01*
X37050Y208250D02*X37800Y207500D01*
X37050Y209750D02*Y208250D01*
Y209750D02*X37800Y210500D01*
X39300D01*
X40050Y209750D01*
X37050Y209000D02*X40050D01*
Y209750D02*Y209000D01*
X44550Y212750D02*X45300Y213500D01*
X46800D01*
X47550Y212750D01*
X46800Y207500D02*X47550Y208250D01*
X45300Y207500D02*X46800D01*
X44550Y208250D02*X45300Y207500D01*
Y210800D02*X46800D01*
X47550Y212750D02*Y211550D01*
Y210050D02*Y208250D01*
Y210050D02*X46800Y210800D01*
X47550Y211550D02*X46800Y210800D01*
X55050Y213500D02*Y207500D01*
X54300D02*X55050Y208250D01*
X52800Y207500D02*X54300D01*
X52050Y208250D02*X52800Y207500D01*
X52050Y209750D02*Y208250D01*
Y209750D02*X52800Y210500D01*
X54300D01*
X55050Y209750D01*
G54D51*X56850Y212000D02*Y211850D01*
G54D50*Y209750D02*Y207500D01*
X59100Y212750D02*Y207500D01*
Y212750D02*X59850Y213500D01*
X60600D01*
X58350Y210500D02*X59850D01*
X62850Y212750D02*Y207500D01*
Y212750D02*X63600Y213500D01*
X64350D01*
X62100Y210500D02*X63600D01*
X66600Y207500D02*X68850D01*
X65850Y208250D02*X66600Y207500D01*
X65850Y209750D02*Y208250D01*
Y209750D02*X66600Y210500D01*
X68100D01*
X68850Y209750D01*
X65850Y209000D02*X68850D01*
Y209750D02*Y209000D01*
X71400Y209750D02*Y207500D01*
Y209750D02*X72150Y210500D01*
X73650D01*
X70650D02*X71400Y209750D01*
X76200Y207500D02*X78450D01*
X75450Y208250D02*X76200Y207500D01*
X75450Y209750D02*Y208250D01*
Y209750D02*X76200Y210500D01*
X77700D01*
X78450Y209750D01*
X75450Y209000D02*X78450D01*
Y209750D02*Y209000D01*
X81000Y209750D02*Y207500D01*
Y209750D02*X81750Y210500D01*
X82500D01*
X83250Y209750D01*
Y207500D01*
X80250Y210500D02*X81000Y209750D01*
X85800Y213500D02*Y208250D01*
X86550Y207500D01*
X85050Y211250D02*X86550D01*
X93750Y213500D02*Y207500D01*
X93000D02*X93750Y208250D01*
X91500Y207500D02*X93000D01*
X90750Y208250D02*X91500Y207500D01*
X90750Y209750D02*Y208250D01*
Y209750D02*X91500Y210500D01*
X93000D01*
X93750Y209750D01*
X96300D02*Y207500D01*
Y209750D02*X97050Y210500D01*
X98550D01*
X95550D02*X96300Y209750D01*
G54D51*X100350Y212000D02*Y211850D01*
G54D50*Y209750D02*Y207500D01*
X101850Y213500D02*Y208250D01*
X102600Y207500D01*
X104100Y213500D02*Y208250D01*
X104850Y207500D01*
X109800D02*X112050D01*
X112800Y208250D01*
X112050Y209000D02*X112800Y208250D01*
X109800Y209000D02*X112050D01*
X109050Y209750D02*X109800Y209000D01*
X109050Y209750D02*X109800Y210500D01*
X112050D01*
X112800Y209750D01*
X109050Y208250D02*X109800Y207500D01*
G54D51*X114600Y212000D02*Y211850D01*
G54D50*Y209750D02*Y207500D01*
X116100Y210500D02*X119100D01*
X116100Y207500D02*X119100Y210500D01*
X116100Y207500D02*X119100D01*
X121650D02*X123900D01*
X120900Y208250D02*X121650Y207500D01*
X120900Y209750D02*Y208250D01*
Y209750D02*X121650Y210500D01*
X123150D01*
X123900Y209750D01*
X120900Y209000D02*X123900D01*
Y209750D02*Y209000D01*
X126450Y207500D02*X128700D01*
X129450Y208250D01*
X128700Y209000D02*X129450Y208250D01*
X126450Y209000D02*X128700D01*
X125700Y209750D02*X126450Y209000D01*
X125700Y209750D02*X126450Y210500D01*
X128700D01*
X129450Y209750D01*
X125700Y208250D02*X126450Y207500D01*
X133950Y210500D02*Y208250D01*
X134700Y207500D01*
X136200D01*
X136950Y208250D01*
Y210500D02*Y208250D01*
X139500Y207500D02*X141750D01*
X142500Y208250D01*
X141750Y209000D02*X142500Y208250D01*
X139500Y209000D02*X141750D01*
X138750Y209750D02*X139500Y209000D01*
X138750Y209750D02*X139500Y210500D01*
X141750D01*
X142500Y209750D01*
X138750Y208250D02*X139500Y207500D01*
X145050D02*X147300D01*
X144300Y208250D02*X145050Y207500D01*
X144300Y209750D02*Y208250D01*
Y209750D02*X145050Y210500D01*
X146550D01*
X147300Y209750D01*
X144300Y209000D02*X147300D01*
Y209750D02*Y209000D01*
X152100Y213500D02*Y207500D01*
X151350D02*X152100Y208250D01*
X149850Y207500D02*X151350D01*
X149100Y208250D02*X149850Y207500D01*
X149100Y209750D02*Y208250D01*
Y209750D02*X149850Y210500D01*
X151350D01*
X152100Y209750D01*
G54D51*X156600Y212000D02*Y211850D01*
G54D50*Y209750D02*Y207500D01*
X158850Y209750D02*Y207500D01*
Y209750D02*X159600Y210500D01*
X160350D01*
X161100Y209750D01*
Y207500D01*
X158100Y210500D02*X158850Y209750D01*
X166350Y213500D02*Y208250D01*
X167100Y207500D01*
X165600Y211250D02*X167100D01*
X168600Y213500D02*Y207500D01*
Y209750D02*X169350Y210500D01*
X170850D01*
X171600Y209750D01*
Y207500D01*
G54D51*X173400Y212000D02*Y211850D01*
G54D50*Y209750D02*Y207500D01*
X175650D02*X177900D01*
X178650Y208250D01*
X177900Y209000D02*X178650Y208250D01*
X175650Y209000D02*X177900D01*
X174900Y209750D02*X175650Y209000D01*
X174900Y209750D02*X175650Y210500D01*
X177900D01*
X178650Y209750D01*
X174900Y208250D02*X175650Y207500D01*
X183150Y213500D02*Y208250D01*
X183900Y207500D01*
X187650Y210500D02*X188400Y209750D01*
X186150Y210500D02*X187650D01*
X185400Y209750D02*X186150Y210500D01*
X185400Y209750D02*Y208250D01*
X186150Y207500D01*
X188400Y210500D02*Y208250D01*
X189150Y207500D01*
X186150D02*X187650D01*
X188400Y208250D01*
X190950Y210500D02*Y208250D01*
X191700Y207500D01*
X193950Y210500D02*Y206000D01*
X193200Y205250D02*X193950Y206000D01*
X191700Y205250D02*X193200D01*
X190950Y206000D02*X191700Y205250D01*
Y207500D02*X193200D01*
X193950Y208250D01*
X195750Y209750D02*Y208250D01*
Y209750D02*X196500Y210500D01*
X198000D01*
X198750Y209750D01*
Y208250D01*
X198000Y207500D02*X198750Y208250D01*
X196500Y207500D02*X198000D01*
X195750Y208250D02*X196500Y207500D01*
X200550Y210500D02*Y208250D01*
X201300Y207500D01*
X202800D01*
X203550Y208250D01*
Y210500D02*Y208250D01*
X206100Y213500D02*Y208250D01*
X206850Y207500D01*
X205350Y211250D02*X206850D01*
X208350Y206000D02*X209850Y207500D01*
X214350Y212750D02*X215100Y213500D01*
X216600D01*
X217350Y212750D01*
X216600Y207500D02*X217350Y208250D01*
X215100Y207500D02*X216600D01*
X214350Y208250D02*X215100Y207500D01*
Y210800D02*X216600D01*
X217350Y212750D02*Y211550D01*
Y210050D02*Y208250D01*
Y210050D02*X216600Y210800D01*
X217350Y211550D02*X216600Y210800D01*
X221400Y213500D02*X222150Y212750D01*
X219900Y213500D02*X221400D01*
X219150Y212750D02*X219900Y213500D01*
X219150Y212750D02*Y208250D01*
X219900Y207500D01*
X221400Y210800D02*X222150Y210050D01*
X219150Y210800D02*X221400D01*
X219900Y207500D02*X221400D01*
X222150Y208250D01*
Y210050D02*Y208250D01*
X226650Y213500D02*Y207500D01*
Y209750D02*X227400Y210500D01*
X228900D01*
X229650Y209750D01*
Y207500D01*
X231450Y209750D02*Y208250D01*
Y209750D02*X232200Y210500D01*
X233700D01*
X234450Y209750D01*
Y208250D01*
X233700Y207500D02*X234450Y208250D01*
X232200Y207500D02*X233700D01*
X231450Y208250D02*X232200Y207500D01*
X236250Y213500D02*Y208250D01*
X237000Y207500D01*
X239250D02*X241500D01*
X238500Y208250D02*X239250Y207500D01*
X238500Y209750D02*Y208250D01*
Y209750D02*X239250Y210500D01*
X240750D01*
X241500Y209750D01*
X238500Y209000D02*X241500D01*
Y209750D02*Y209000D01*
X244050Y207500D02*X246300D01*
X247050Y208250D01*
X246300Y209000D02*X247050Y208250D01*
X244050Y209000D02*X246300D01*
X243300Y209750D02*X244050Y209000D01*
X243300Y209750D02*X244050Y210500D01*
X246300D01*
X247050Y209750D01*
X243300Y208250D02*X244050Y207500D01*
X252300Y213500D02*Y208250D01*
X253050Y207500D01*
X251550Y211250D02*X253050D01*
X254550Y209750D02*Y208250D01*
Y209750D02*X255300Y210500D01*
X256800D01*
X257550Y209750D01*
Y208250D01*
X256800Y207500D02*X257550Y208250D01*
X255300Y207500D02*X256800D01*
X254550Y208250D02*X255300Y207500D01*
X260100Y213500D02*Y208250D01*
X260850Y207500D01*
X259350Y211250D02*X260850D01*
X264600Y210500D02*X265350Y209750D01*
X263100Y210500D02*X264600D01*
X262350Y209750D02*X263100Y210500D01*
X262350Y209750D02*Y208250D01*
X263100Y207500D01*
X265350Y210500D02*Y208250D01*
X266100Y207500D01*
X263100D02*X264600D01*
X265350Y208250D01*
X267900Y213500D02*Y208250D01*
X268650Y207500D01*
G54D52*X0Y125000D02*X100000D01*
X0D02*Y0D01*
X100000Y125000D02*Y0D01*
X0D02*X100000D01*
G54D50*X200000Y138500D02*Y132500D01*
Y138500D02*X202250Y135500D01*
X204500Y138500D01*
Y132500D01*
X208550Y135500D02*X209300Y134750D01*
X207050Y135500D02*X208550D01*
X206300Y134750D02*X207050Y135500D01*
X206300Y134750D02*Y133250D01*
X207050Y132500D01*
X209300Y135500D02*Y133250D01*
X210050Y132500D01*
X207050D02*X208550D01*
X209300Y133250D01*
X211850Y135500D02*X214850Y132500D01*
X211850D02*X214850Y135500D01*
G54D51*X216650Y137000D02*Y136850D01*
G54D50*Y134750D02*Y132500D01*
X218900Y134750D02*Y132500D01*
Y134750D02*X219650Y135500D01*
X220400D01*
X221150Y134750D01*
Y132500D01*
Y134750D02*X221900Y135500D01*
X222650D01*
X223400Y134750D01*
Y132500D01*
X218150Y135500D02*X218900Y134750D01*
X225200Y135500D02*Y133250D01*
X225950Y132500D01*
X227450D01*
X228200Y133250D01*
Y135500D02*Y133250D01*
X230750Y134750D02*Y132500D01*
Y134750D02*X231500Y135500D01*
X232250D01*
X233000Y134750D01*
Y132500D01*
Y134750D02*X233750Y135500D01*
X234500D01*
X235250Y134750D01*
Y132500D01*
X230000Y135500D02*X230750Y134750D01*
X240500Y138500D02*Y132500D01*
X242450Y138500D02*X243500Y137450D01*
Y133550D01*
X242450Y132500D02*X243500Y133550D01*
X239750Y132500D02*X242450D01*
X239750Y138500D02*X242450D01*
G54D51*X245300Y137000D02*Y136850D01*
G54D50*Y134750D02*Y132500D01*
X247550Y134750D02*Y132500D01*
Y134750D02*X248300Y135500D01*
X249050D01*
X249800Y134750D01*
Y132500D01*
Y134750D02*X250550Y135500D01*
X251300D01*
X252050Y134750D01*
Y132500D01*
X246800Y135500D02*X247550Y134750D01*
X254600Y132500D02*X256850D01*
X253850Y133250D02*X254600Y132500D01*
X253850Y134750D02*Y133250D01*
Y134750D02*X254600Y135500D01*
X256100D01*
X256850Y134750D01*
X253850Y134000D02*X256850D01*
Y134750D02*Y134000D01*
X259400Y134750D02*Y132500D01*
Y134750D02*X260150Y135500D01*
X260900D01*
X261650Y134750D01*
Y132500D01*
X258650Y135500D02*X259400Y134750D01*
X264200Y132500D02*X266450D01*
X267200Y133250D01*
X266450Y134000D02*X267200Y133250D01*
X264200Y134000D02*X266450D01*
X263450Y134750D02*X264200Y134000D01*
X263450Y134750D02*X264200Y135500D01*
X266450D01*
X267200Y134750D01*
X263450Y133250D02*X264200Y132500D01*
G54D51*X269000Y137000D02*Y136850D01*
G54D50*Y134750D02*Y132500D01*
X270500Y134750D02*Y133250D01*
Y134750D02*X271250Y135500D01*
X272750D01*
X273500Y134750D01*
Y133250D01*
X272750Y132500D02*X273500Y133250D01*
X271250Y132500D02*X272750D01*
X270500Y133250D02*X271250Y132500D01*
X276050Y134750D02*Y132500D01*
Y134750D02*X276800Y135500D01*
X277550D01*
X278300Y134750D01*
Y132500D01*
X275300Y135500D02*X276050Y134750D01*
X280850Y132500D02*X283100D01*
X283850Y133250D01*
X283100Y134000D02*X283850Y133250D01*
X280850Y134000D02*X283100D01*
X280100Y134750D02*X280850Y134000D01*
X280100Y134750D02*X280850Y135500D01*
X283100D01*
X283850Y134750D01*
X280100Y133250D02*X280850Y132500D01*
X285650Y136250D02*X286400D01*
X285650Y134750D02*X286400D01*
X290900Y137300D02*X292100Y138500D01*
Y132500D01*
X290900D02*X293150D01*
X294950Y133250D02*X295700Y132500D01*
X294950Y137750D02*Y133250D01*
Y137750D02*X295700Y138500D01*
X297200D01*
X297950Y137750D01*
Y133250D01*
X297200Y132500D02*X297950Y133250D01*
X295700Y132500D02*X297200D01*
X294950Y134000D02*X297950Y137000D01*
X299750Y133250D02*X300500Y132500D01*
X299750Y137750D02*Y133250D01*
Y137750D02*X300500Y138500D01*
X302000D01*
X302750Y137750D01*
Y133250D01*
X302000Y132500D02*X302750Y133250D01*
X300500Y132500D02*X302000D01*
X299750Y134000D02*X302750Y137000D01*
X304550Y133250D02*X305300Y132500D01*
X304550Y137750D02*Y133250D01*
Y137750D02*X305300Y138500D01*
X306800D01*
X307550Y137750D01*
Y133250D01*
X306800Y132500D02*X307550Y133250D01*
X305300Y132500D02*X306800D01*
X304550Y134000D02*X307550Y137000D01*
X309350Y132500D02*X310100D01*
X311900Y133250D02*X312650Y132500D01*
X311900Y137750D02*Y133250D01*
Y137750D02*X312650Y138500D01*
X314150D01*
X314900Y137750D01*
Y133250D01*
X314150Y132500D02*X314900Y133250D01*
X312650Y132500D02*X314150D01*
X311900Y134000D02*X314900Y137000D01*
X316700Y133250D02*X317450Y132500D01*
X316700Y137750D02*Y133250D01*
Y137750D02*X317450Y138500D01*
X318950D01*
X319700Y137750D01*
Y133250D01*
X318950Y132500D02*X319700Y133250D01*
X317450Y132500D02*X318950D01*
X316700Y134000D02*X319700Y137000D01*
X321500Y133250D02*X322250Y132500D01*
X321500Y137750D02*Y133250D01*
Y137750D02*X322250Y138500D01*
X323750D01*
X324500Y137750D01*
Y133250D01*
X323750Y132500D02*X324500Y133250D01*
X322250Y132500D02*X323750D01*
X321500Y134000D02*X324500Y137000D01*
X326300Y133250D02*X327050Y132500D01*
X326300Y137750D02*Y133250D01*
Y137750D02*X327050Y138500D01*
X328550D01*
X329300Y137750D01*
Y133250D01*
X328550Y132500D02*X329300Y133250D01*
X327050Y132500D02*X328550D01*
X326300Y134000D02*X329300Y137000D01*
X331100Y133250D02*X331850Y132500D01*
X331100Y137750D02*Y133250D01*
Y137750D02*X331850Y138500D01*
X333350D01*
X334100Y137750D01*
Y133250D01*
X333350Y132500D02*X334100Y133250D01*
X331850Y132500D02*X333350D01*
X331100Y134000D02*X334100Y137000D01*
X335900Y133250D02*X336650Y132500D01*
X335900Y137750D02*Y133250D01*
Y137750D02*X336650Y138500D01*
X338150D01*
X338900Y137750D01*
Y133250D01*
X338150Y132500D02*X338900Y133250D01*
X336650Y132500D02*X338150D01*
X335900Y134000D02*X338900Y137000D01*
X344150Y134750D02*Y132500D01*
Y134750D02*X344900Y135500D01*
X345650D01*
X346400Y134750D01*
Y132500D01*
Y134750D02*X347150Y135500D01*
X347900D01*
X348650Y134750D01*
Y132500D01*
X343400Y135500D02*X344150Y134750D01*
G54D51*X350450Y137000D02*Y136850D01*
G54D50*Y134750D02*Y132500D01*
X351950Y138500D02*Y133250D01*
X352700Y132500D01*
X354950D02*X357200D01*
X357950Y133250D01*
X357200Y134000D02*X357950Y133250D01*
X354950Y134000D02*X357200D01*
X354200Y134750D02*X354950Y134000D01*
X354200Y134750D02*X354950Y135500D01*
X357200D01*
X357950Y134750D01*
X354200Y133250D02*X354950Y132500D01*
X362450Y135500D02*Y133250D01*
X363200Y132500D01*
X363950D01*
X364700Y133250D01*
Y135500D02*Y133250D01*
X365450Y132500D01*
X366200D01*
X366950Y133250D01*
Y135500D02*Y133250D01*
G54D51*X368750Y137000D02*Y136850D01*
G54D50*Y134750D02*Y132500D01*
X373250Y138500D02*Y132500D01*
X372500D02*X373250Y133250D01*
X371000Y132500D02*X372500D01*
X370250Y133250D02*X371000Y132500D01*
X370250Y134750D02*Y133250D01*
Y134750D02*X371000Y135500D01*
X372500D01*
X373250Y134750D01*
X375800Y132500D02*X378050D01*
X375050Y133250D02*X375800Y132500D01*
X375050Y134750D02*Y133250D01*
Y134750D02*X375800Y135500D01*
X377300D01*
X378050Y134750D01*
X375050Y134000D02*X378050D01*
Y134750D02*Y134000D01*
X379850Y131000D02*X381350Y132500D01*
X385850Y137300D02*X387050Y138500D01*
Y132500D01*
X385850D02*X388100D01*
X389900Y137750D02*X390650Y138500D01*
X392900D01*
X393650Y137750D01*
Y136250D01*
X389900Y132500D02*X393650Y136250D01*
X389900Y132500D02*X393650D01*
X395450Y138500D02*X398450D01*
X395450D02*Y135500D01*
X396200Y136250D01*
X397700D01*
X398450Y135500D01*
Y133250D01*
X397700Y132500D02*X398450Y133250D01*
X396200Y132500D02*X397700D01*
X395450Y133250D02*X396200Y132500D01*
X400250Y133250D02*X401000Y132500D01*
X400250Y137750D02*Y133250D01*
Y137750D02*X401000Y138500D01*
X402500D01*
X403250Y137750D01*
Y133250D01*
X402500Y132500D02*X403250Y133250D01*
X401000Y132500D02*X402500D01*
X400250Y134000D02*X403250Y137000D01*
X405050Y132500D02*X405800D01*
X407600Y133250D02*X408350Y132500D01*
X407600Y137750D02*Y133250D01*
Y137750D02*X408350Y138500D01*
X409850D01*
X410600Y137750D01*
Y133250D01*
X409850Y132500D02*X410600Y133250D01*
X408350Y132500D02*X409850D01*
X407600Y134000D02*X410600Y137000D01*
X412400Y133250D02*X413150Y132500D01*
X412400Y137750D02*Y133250D01*
Y137750D02*X413150Y138500D01*
X414650D01*
X415400Y137750D01*
Y133250D01*
X414650Y132500D02*X415400Y133250D01*
X413150Y132500D02*X414650D01*
X412400Y134000D02*X415400Y137000D01*
X417200Y133250D02*X417950Y132500D01*
X417200Y137750D02*Y133250D01*
Y137750D02*X417950Y138500D01*
X419450D01*
X420200Y137750D01*
Y133250D01*
X419450Y132500D02*X420200Y133250D01*
X417950Y132500D02*X419450D01*
X417200Y134000D02*X420200Y137000D01*
X422000Y133250D02*X422750Y132500D01*
X422000Y137750D02*Y133250D01*
Y137750D02*X422750Y138500D01*
X424250D01*
X425000Y137750D01*
Y133250D01*
X424250Y132500D02*X425000Y133250D01*
X422750Y132500D02*X424250D01*
X422000Y134000D02*X425000Y137000D01*
X426800Y133250D02*X427550Y132500D01*
X426800Y137750D02*Y133250D01*
Y137750D02*X427550Y138500D01*
X429050D01*
X429800Y137750D01*
Y133250D01*
X429050Y132500D02*X429800Y133250D01*
X427550Y132500D02*X429050D01*
X426800Y134000D02*X429800Y137000D01*
X431600Y133250D02*X432350Y132500D01*
X431600Y137750D02*Y133250D01*
Y137750D02*X432350Y138500D01*
X433850D01*
X434600Y137750D01*
Y133250D01*
X433850Y132500D02*X434600Y133250D01*
X432350Y132500D02*X433850D01*
X431600Y134000D02*X434600Y137000D01*
X439850Y134750D02*Y132500D01*
Y134750D02*X440600Y135500D01*
X441350D01*
X442100Y134750D01*
Y132500D01*
Y134750D02*X442850Y135500D01*
X443600D01*
X444350Y134750D01*
Y132500D01*
X439100Y135500D02*X439850Y134750D01*
G54D51*X446150Y137000D02*Y136850D01*
G54D50*Y134750D02*Y132500D01*
X447650Y138500D02*Y133250D01*
X448400Y132500D01*
X450650D02*X452900D01*
X453650Y133250D01*
X452900Y134000D02*X453650Y133250D01*
X450650Y134000D02*X452900D01*
X449900Y134750D02*X450650Y134000D01*
X449900Y134750D02*X450650Y135500D01*
X452900D01*
X453650Y134750D01*
X449900Y133250D02*X450650Y132500D01*
X458150Y138500D02*Y132500D01*
Y134750D02*X458900Y135500D01*
X460400D01*
X461150Y134750D01*
Y132500D01*
G54D51*X462950Y137000D02*Y136850D01*
G54D50*Y134750D02*Y132500D01*
X466700Y135500D02*X467450Y134750D01*
X465200Y135500D02*X466700D01*
X464450Y134750D02*X465200Y135500D01*
X464450Y134750D02*Y133250D01*
X465200Y132500D01*
X466700D01*
X467450Y133250D01*
X464450Y131000D02*X465200Y130250D01*
X466700D01*
X467450Y131000D01*
Y135500D02*Y131000D01*
X469250Y138500D02*Y132500D01*
Y134750D02*X470000Y135500D01*
X471500D01*
X472250Y134750D01*
Y132500D01*
X0Y-9500D02*X3000D01*
X3750Y-8750D01*
Y-6950D02*Y-8750D01*
X3000Y-6200D02*X3750Y-6950D01*
X750Y-6200D02*X3000D01*
X750Y-3500D02*Y-9500D01*
X0Y-3500D02*X3000D01*
X3750Y-4250D01*
Y-5450D01*
X3000Y-6200D02*X3750Y-5450D01*
X5550Y-7250D02*Y-8750D01*
Y-7250D02*X6300Y-6500D01*
X7800D01*
X8550Y-7250D01*
Y-8750D01*
X7800Y-9500D02*X8550Y-8750D01*
X6300Y-9500D02*X7800D01*
X5550Y-8750D02*X6300Y-9500D01*
X12600Y-6500D02*X13350Y-7250D01*
X11100Y-6500D02*X12600D01*
X10350Y-7250D02*X11100Y-6500D01*
X10350Y-7250D02*Y-8750D01*
X11100Y-9500D01*
X13350Y-6500D02*Y-8750D01*
X14100Y-9500D01*
X11100D02*X12600D01*
X13350Y-8750D01*
X16650Y-7250D02*Y-9500D01*
Y-7250D02*X17400Y-6500D01*
X18900D01*
X15900D02*X16650Y-7250D01*
X23700Y-3500D02*Y-9500D01*
X22950D02*X23700Y-8750D01*
X21450Y-9500D02*X22950D01*
X20700Y-8750D02*X21450Y-9500D01*
X20700Y-7250D02*Y-8750D01*
Y-7250D02*X21450Y-6500D01*
X22950D01*
X23700Y-7250D01*
X28200D02*Y-8750D01*
Y-7250D02*X28950Y-6500D01*
X30450D01*
X31200Y-7250D01*
Y-8750D01*
X30450Y-9500D02*X31200Y-8750D01*
X28950Y-9500D02*X30450D01*
X28200Y-8750D02*X28950Y-9500D01*
X33000Y-6500D02*Y-8750D01*
X33750Y-9500D01*
X35250D01*
X36000Y-8750D01*
Y-6500D02*Y-8750D01*
X38550Y-3500D02*Y-8750D01*
X39300Y-9500D01*
X37800Y-5750D02*X39300D01*
X40800Y-3500D02*Y-8750D01*
X41550Y-9500D01*
G54D51*X43050Y-5000D02*Y-5150D01*
G54D50*Y-7250D02*Y-9500D01*
X45300Y-7250D02*Y-9500D01*
Y-7250D02*X46050Y-6500D01*
X46800D01*
X47550Y-7250D01*
Y-9500D01*
X44550Y-6500D02*X45300Y-7250D01*
X50100Y-9500D02*X52350D01*
X49350Y-8750D02*X50100Y-9500D01*
X49350Y-7250D02*Y-8750D01*
Y-7250D02*X50100Y-6500D01*
X51600D01*
X52350Y-7250D01*
X49350Y-8000D02*X52350D01*
Y-7250D02*Y-8000D01*
G54D51*X56850Y-5000D02*Y-5150D01*
G54D50*Y-7250D02*Y-9500D01*
X59100D02*X61350D01*
X62100Y-8750D01*
X61350Y-8000D02*X62100Y-8750D01*
X59100Y-8000D02*X61350D01*
X58350Y-7250D02*X59100Y-8000D01*
X58350Y-7250D02*X59100Y-6500D01*
X61350D01*
X62100Y-7250D01*
X58350Y-8750D02*X59100Y-9500D01*
X67350Y-3500D02*Y-8750D01*
X68100Y-9500D01*
X66600Y-5750D02*X68100D01*
X69600Y-3500D02*Y-9500D01*
Y-7250D02*X70350Y-6500D01*
X71850D01*
X72600Y-7250D01*
Y-9500D01*
X75150D02*X77400D01*
X74400Y-8750D02*X75150Y-9500D01*
X74400Y-7250D02*Y-8750D01*
Y-7250D02*X75150Y-6500D01*
X76650D01*
X77400Y-7250D01*
X74400Y-8000D02*X77400D01*
Y-7250D02*Y-8000D01*
X82650Y-6500D02*X84900D01*
X81900Y-7250D02*X82650Y-6500D01*
X81900Y-7250D02*Y-8750D01*
X82650Y-9500D01*
X84900D01*
X87450D02*X89700D01*
X86700Y-8750D02*X87450Y-9500D01*
X86700Y-7250D02*Y-8750D01*
Y-7250D02*X87450Y-6500D01*
X88950D01*
X89700Y-7250D01*
X86700Y-8000D02*X89700D01*
Y-7250D02*Y-8000D01*
X92250Y-7250D02*Y-9500D01*
Y-7250D02*X93000Y-6500D01*
X93750D01*
X94500Y-7250D01*
Y-9500D01*
X91500Y-6500D02*X92250Y-7250D01*
X97050Y-3500D02*Y-8750D01*
X97800Y-9500D01*
X96300Y-5750D02*X97800D01*
X100050Y-9500D02*X102300D01*
X99300Y-8750D02*X100050Y-9500D01*
X99300Y-7250D02*Y-8750D01*
Y-7250D02*X100050Y-6500D01*
X101550D01*
X102300Y-7250D01*
X99300Y-8000D02*X102300D01*
Y-7250D02*Y-8000D01*
X104850Y-7250D02*Y-9500D01*
Y-7250D02*X105600Y-6500D01*
X107100D01*
X104100D02*X104850Y-7250D01*
X108900Y-3500D02*Y-8750D01*
X109650Y-9500D01*
G54D51*X111150Y-5000D02*Y-5150D01*
G54D50*Y-7250D02*Y-9500D01*
X113400Y-7250D02*Y-9500D01*
Y-7250D02*X114150Y-6500D01*
X114900D01*
X115650Y-7250D01*
Y-9500D01*
X112650Y-6500D02*X113400Y-7250D01*
X118200Y-9500D02*X120450D01*
X117450Y-8750D02*X118200Y-9500D01*
X117450Y-7250D02*Y-8750D01*
Y-7250D02*X118200Y-6500D01*
X119700D01*
X120450Y-7250D01*
X117450Y-8000D02*X120450D01*
Y-7250D02*Y-8000D01*
X124950Y-7250D02*Y-8750D01*
Y-7250D02*X125700Y-6500D01*
X127200D01*
X127950Y-7250D01*
Y-8750D01*
X127200Y-9500D02*X127950Y-8750D01*
X125700Y-9500D02*X127200D01*
X124950Y-8750D02*X125700Y-9500D01*
X130500Y-4250D02*Y-9500D01*
Y-4250D02*X131250Y-3500D01*
X132000D01*
X129750Y-6500D02*X131250D01*
X136950Y-3500D02*Y-8750D01*
X137700Y-9500D01*
X136200Y-5750D02*X137700D01*
X139200Y-3500D02*Y-9500D01*
Y-7250D02*X139950Y-6500D01*
X141450D01*
X142200Y-7250D01*
Y-9500D01*
G54D51*X144000Y-5000D02*Y-5150D01*
G54D50*Y-7250D02*Y-9500D01*
X146250D02*X148500D01*
X149250Y-8750D01*
X148500Y-8000D02*X149250Y-8750D01*
X146250Y-8000D02*X148500D01*
X145500Y-7250D02*X146250Y-8000D01*
X145500Y-7250D02*X146250Y-6500D01*
X148500D01*
X149250Y-7250D01*
X145500Y-8750D02*X146250Y-9500D01*
X153750Y-8750D02*X154500Y-9500D01*
X153750Y-7550D02*Y-8750D01*
Y-7550D02*X154800Y-6500D01*
X155700D01*
X156750Y-7550D01*
Y-8750D01*
X156000Y-9500D02*X156750Y-8750D01*
X154500Y-9500D02*X156000D01*
X153750Y-5450D02*X154800Y-6500D01*
X153750Y-4250D02*Y-5450D01*
Y-4250D02*X154500Y-3500D01*
X156000D01*
X156750Y-4250D01*
Y-5450D01*
X155700Y-6500D02*X156750Y-5450D01*
X158550Y-9500D02*X159300D01*
X161100Y-8750D02*X161850Y-9500D01*
X161100Y-4250D02*Y-8750D01*
Y-4250D02*X161850Y-3500D01*
X163350D01*
X164100Y-4250D01*
Y-8750D01*
X163350Y-9500D02*X164100Y-8750D01*
X161850Y-9500D02*X163350D01*
X161100Y-8000D02*X164100Y-5000D01*
X165900Y-8750D02*X166650Y-9500D01*
X165900Y-4250D02*Y-8750D01*
Y-4250D02*X166650Y-3500D01*
X168150D01*
X168900Y-4250D01*
Y-8750D01*
X168150Y-9500D02*X168900Y-8750D01*
X166650Y-9500D02*X168150D01*
X165900Y-8000D02*X168900Y-5000D01*
X170700Y-8750D02*X171450Y-9500D01*
X170700Y-4250D02*Y-8750D01*
Y-4250D02*X171450Y-3500D01*
X172950D01*
X173700Y-4250D01*
Y-8750D01*
X172950Y-9500D02*X173700Y-8750D01*
X171450Y-9500D02*X172950D01*
X170700Y-8000D02*X173700Y-5000D01*
X175500Y-8750D02*X176250Y-9500D01*
X175500Y-4250D02*Y-8750D01*
Y-4250D02*X176250Y-3500D01*
X177750D01*
X178500Y-4250D01*
Y-8750D01*
X177750Y-9500D02*X178500Y-8750D01*
X176250Y-9500D02*X177750D01*
X175500Y-8000D02*X178500Y-5000D01*
X180300Y-8750D02*X181050Y-9500D01*
X180300Y-4250D02*Y-8750D01*
Y-4250D02*X181050Y-3500D01*
X182550D01*
X183300Y-4250D01*
Y-8750D01*
X182550Y-9500D02*X183300Y-8750D01*
X181050Y-9500D02*X182550D01*
X180300Y-8000D02*X183300Y-5000D01*
X185100Y-8750D02*X185850Y-9500D01*
X185100Y-4250D02*Y-8750D01*
Y-4250D02*X185850Y-3500D01*
X187350D01*
X188100Y-4250D01*
Y-8750D01*
X187350Y-9500D02*X188100Y-8750D01*
X185850Y-9500D02*X187350D01*
X185100Y-8000D02*X188100Y-5000D01*
X193350Y-7250D02*Y-9500D01*
Y-7250D02*X194100Y-6500D01*
X194850D01*
X195600Y-7250D01*
Y-9500D01*
Y-7250D02*X196350Y-6500D01*
X197100D01*
X197850Y-7250D01*
Y-9500D01*
X192600Y-6500D02*X193350Y-7250D01*
G54D51*X199650Y-5000D02*Y-5150D01*
G54D50*Y-7250D02*Y-9500D01*
X201150Y-3500D02*Y-8750D01*
X201900Y-9500D01*
X206850Y-7250D02*Y-9500D01*
Y-7250D02*X207600Y-6500D01*
X209100D01*
X206100D02*X206850Y-7250D01*
X211650Y-9500D02*X213900D01*
X210900Y-8750D02*X211650Y-9500D01*
X210900Y-7250D02*Y-8750D01*
Y-7250D02*X211650Y-6500D01*
X213150D01*
X213900Y-7250D01*
X210900Y-8000D02*X213900D01*
Y-7250D02*Y-8000D01*
X216450Y-6500D02*X218700D01*
X215700Y-7250D02*X216450Y-6500D01*
X215700Y-7250D02*Y-8750D01*
X216450Y-9500D01*
X218700D01*
X221250Y-3500D02*Y-8750D01*
X222000Y-9500D01*
X220500Y-5750D02*X222000D01*
X225750Y-6500D02*X226500Y-7250D01*
X224250Y-6500D02*X225750D01*
X223500Y-7250D02*X224250Y-6500D01*
X223500Y-7250D02*Y-8750D01*
X224250Y-9500D01*
X226500Y-6500D02*Y-8750D01*
X227250Y-9500D01*
X224250D02*X225750D01*
X226500Y-8750D01*
X229800Y-7250D02*Y-9500D01*
Y-7250D02*X230550Y-6500D01*
X231300D01*
X232050Y-7250D01*
Y-9500D01*
X229050Y-6500D02*X229800Y-7250D01*
X236100Y-6500D02*X236850Y-7250D01*
X234600Y-6500D02*X236100D01*
X233850Y-7250D02*X234600Y-6500D01*
X233850Y-7250D02*Y-8750D01*
X234600Y-9500D01*
X236100D01*
X236850Y-8750D01*
X233850Y-11000D02*X234600Y-11750D01*
X236100D01*
X236850Y-11000D01*
Y-6500D02*Y-11000D01*
X238650Y-3500D02*Y-8750D01*
X239400Y-9500D01*
X241650D02*X243900D01*
X240900Y-8750D02*X241650Y-9500D01*
X240900Y-7250D02*Y-8750D01*
Y-7250D02*X241650Y-6500D01*
X243150D01*
X243900Y-7250D01*
X240900Y-8000D02*X243900D01*
Y-7250D02*Y-8000D01*
X248400Y-6500D02*X251400D01*
X255900Y-8750D02*X256650Y-9500D01*
X255900Y-4250D02*Y-8750D01*
Y-4250D02*X256650Y-3500D01*
X258150D01*
X258900Y-4250D01*
Y-8750D01*
X258150Y-9500D02*X258900Y-8750D01*
X256650Y-9500D02*X258150D01*
X255900Y-8000D02*X258900Y-5000D01*
X260700Y-11000D02*X262200Y-9500D01*
X264000Y-8750D02*X264750Y-9500D01*
X264000Y-4250D02*Y-8750D01*
Y-4250D02*X264750Y-3500D01*
X266250D01*
X267000Y-4250D01*
Y-8750D01*
X266250Y-9500D02*X267000Y-8750D01*
X264750Y-9500D02*X266250D01*
X264000Y-8000D02*X267000Y-5000D01*
X272250Y-3500D02*Y-8750D01*
X273000Y-9500D01*
X271500Y-5750D02*X273000D01*
X274500Y-7250D02*Y-8750D01*
Y-7250D02*X275250Y-6500D01*
X276750D01*
X277500Y-7250D01*
Y-8750D01*
X276750Y-9500D02*X277500Y-8750D01*
X275250Y-9500D02*X276750D01*
X274500Y-8750D02*X275250Y-9500D01*
X282000Y-4700D02*X283200Y-3500D01*
Y-9500D01*
X282000D02*X284250D01*
X286050Y-8750D02*X286800Y-9500D01*
X286050Y-4250D02*Y-8750D01*
Y-4250D02*X286800Y-3500D01*
X288300D01*
X289050Y-4250D01*
Y-8750D01*
X288300Y-9500D02*X289050Y-8750D01*
X286800Y-9500D02*X288300D01*
X286050Y-8000D02*X289050Y-5000D01*
X290850Y-8750D02*X291600Y-9500D01*
X290850Y-4250D02*Y-8750D01*
Y-4250D02*X291600Y-3500D01*
X293100D01*
X293850Y-4250D01*
Y-8750D01*
X293100Y-9500D02*X293850Y-8750D01*
X291600Y-9500D02*X293100D01*
X290850Y-8000D02*X293850Y-5000D01*
X295650Y-8750D02*X296400Y-9500D01*
X295650Y-4250D02*Y-8750D01*
Y-4250D02*X296400Y-3500D01*
X297900D01*
X298650Y-4250D01*
Y-8750D01*
X297900Y-9500D02*X298650Y-8750D01*
X296400Y-9500D02*X297900D01*
X295650Y-8000D02*X298650Y-5000D01*
X300450Y-9500D02*X301200D01*
X303000Y-8750D02*X303750Y-9500D01*
X303000Y-4250D02*Y-8750D01*
Y-4250D02*X303750Y-3500D01*
X305250D01*
X306000Y-4250D01*
Y-8750D01*
X305250Y-9500D02*X306000Y-8750D01*
X303750Y-9500D02*X305250D01*
X303000Y-8000D02*X306000Y-5000D01*
X307800Y-8750D02*X308550Y-9500D01*
X307800Y-4250D02*Y-8750D01*
Y-4250D02*X308550Y-3500D01*
X310050D01*
X310800Y-4250D01*
Y-8750D01*
X310050Y-9500D02*X310800Y-8750D01*
X308550Y-9500D02*X310050D01*
X307800Y-8000D02*X310800Y-5000D01*
X312600Y-8750D02*X313350Y-9500D01*
X312600Y-4250D02*Y-8750D01*
Y-4250D02*X313350Y-3500D01*
X314850D01*
X315600Y-4250D01*
Y-8750D01*
X314850Y-9500D02*X315600Y-8750D01*
X313350Y-9500D02*X314850D01*
X312600Y-8000D02*X315600Y-5000D01*
X317400Y-8750D02*X318150Y-9500D01*
X317400Y-4250D02*Y-8750D01*
Y-4250D02*X318150Y-3500D01*
X319650D01*
X320400Y-4250D01*
Y-8750D01*
X319650Y-9500D02*X320400Y-8750D01*
X318150Y-9500D02*X319650D01*
X317400Y-8000D02*X320400Y-5000D01*
X322200Y-8750D02*X322950Y-9500D01*
X322200Y-4250D02*Y-8750D01*
Y-4250D02*X322950Y-3500D01*
X324450D01*
X325200Y-4250D01*
Y-8750D01*
X324450Y-9500D02*X325200Y-8750D01*
X322950Y-9500D02*X324450D01*
X322200Y-8000D02*X325200Y-5000D01*
X327000Y-8750D02*X327750Y-9500D01*
X327000Y-4250D02*Y-8750D01*
Y-4250D02*X327750Y-3500D01*
X329250D01*
X330000Y-4250D01*
Y-8750D01*
X329250Y-9500D02*X330000Y-8750D01*
X327750Y-9500D02*X329250D01*
X327000Y-8000D02*X330000Y-5000D01*
X331800Y-11000D02*X333300Y-9500D01*
X335100Y-4700D02*X336300Y-3500D01*
Y-9500D01*
X335100D02*X337350D01*
X339150Y-4250D02*X339900Y-3500D01*
X342150D01*
X342900Y-4250D01*
Y-5750D01*
X339150Y-9500D02*X342900Y-5750D01*
X339150Y-9500D02*X342900D01*
X344700Y-3500D02*X347700D01*
X344700D02*Y-6500D01*
X345450Y-5750D01*
X346950D01*
X347700Y-6500D01*
Y-8750D01*
X346950Y-9500D02*X347700Y-8750D01*
X345450Y-9500D02*X346950D01*
X344700Y-8750D02*X345450Y-9500D01*
X349500Y-8750D02*X350250Y-9500D01*
X349500Y-4250D02*Y-8750D01*
Y-4250D02*X350250Y-3500D01*
X351750D01*
X352500Y-4250D01*
Y-8750D01*
X351750Y-9500D02*X352500Y-8750D01*
X350250Y-9500D02*X351750D01*
X349500Y-8000D02*X352500Y-5000D01*
X354300Y-9500D02*X355050D01*
X356850Y-8750D02*X357600Y-9500D01*
X356850Y-4250D02*Y-8750D01*
Y-4250D02*X357600Y-3500D01*
X359100D01*
X359850Y-4250D01*
Y-8750D01*
X359100Y-9500D02*X359850Y-8750D01*
X357600Y-9500D02*X359100D01*
X356850Y-8000D02*X359850Y-5000D01*
X361650Y-8750D02*X362400Y-9500D01*
X361650Y-4250D02*Y-8750D01*
Y-4250D02*X362400Y-3500D01*
X363900D01*
X364650Y-4250D01*
Y-8750D01*
X363900Y-9500D02*X364650Y-8750D01*
X362400Y-9500D02*X363900D01*
X361650Y-8000D02*X364650Y-5000D01*
X366450Y-8750D02*X367200Y-9500D01*
X366450Y-4250D02*Y-8750D01*
Y-4250D02*X367200Y-3500D01*
X368700D01*
X369450Y-4250D01*
Y-8750D01*
X368700Y-9500D02*X369450Y-8750D01*
X367200Y-9500D02*X368700D01*
X366450Y-8000D02*X369450Y-5000D01*
X371250Y-8750D02*X372000Y-9500D01*
X371250Y-4250D02*Y-8750D01*
Y-4250D02*X372000Y-3500D01*
X373500D01*
X374250Y-4250D01*
Y-8750D01*
X373500Y-9500D02*X374250Y-8750D01*
X372000Y-9500D02*X373500D01*
X371250Y-8000D02*X374250Y-5000D01*
X376050Y-8750D02*X376800Y-9500D01*
X376050Y-4250D02*Y-8750D01*
Y-4250D02*X376800Y-3500D01*
X378300D01*
X379050Y-4250D01*
Y-8750D01*
X378300Y-9500D02*X379050Y-8750D01*
X376800Y-9500D02*X378300D01*
X376050Y-8000D02*X379050Y-5000D01*
X380850Y-8750D02*X381600Y-9500D01*
X380850Y-4250D02*Y-8750D01*
Y-4250D02*X381600Y-3500D01*
X383100D01*
X383850Y-4250D01*
Y-8750D01*
X383100Y-9500D02*X383850Y-8750D01*
X381600Y-9500D02*X383100D01*
X380850Y-8000D02*X383850Y-5000D01*
X389100Y-7250D02*Y-9500D01*
Y-7250D02*X389850Y-6500D01*
X390600D01*
X391350Y-7250D01*
Y-9500D01*
Y-7250D02*X392100Y-6500D01*
X392850D01*
X393600Y-7250D01*
Y-9500D01*
X388350Y-6500D02*X389100Y-7250D01*
G54D51*X395400Y-5000D02*Y-5150D01*
G54D50*Y-7250D02*Y-9500D01*
X396900Y-3500D02*Y-8750D01*
X397650Y-9500D01*
X399900D02*X402150D01*
X402900Y-8750D01*
X402150Y-8000D02*X402900Y-8750D01*
X399900Y-8000D02*X402150D01*
X399150Y-7250D02*X399900Y-8000D01*
X399150Y-7250D02*X399900Y-6500D01*
X402150D01*
X402900Y-7250D01*
X399150Y-8750D02*X399900Y-9500D01*
X200750Y153500D02*Y147500D01*
X202700Y153500D02*X203750Y152450D01*
Y148550D01*
X202700Y147500D02*X203750Y148550D01*
X200000Y147500D02*X202700D01*
X200000Y153500D02*X202700D01*
X207800Y150500D02*X208550Y149750D01*
X206300Y150500D02*X207800D01*
X205550Y149750D02*X206300Y150500D01*
X205550Y149750D02*Y148250D01*
X206300Y147500D01*
X208550Y150500D02*Y148250D01*
X209300Y147500D01*
X206300D02*X207800D01*
X208550Y148250D01*
X211850Y153500D02*Y148250D01*
X212600Y147500D01*
X211100Y151250D02*X212600D01*
X214850Y147500D02*X217100D01*
X214100Y148250D02*X214850Y147500D01*
X214100Y149750D02*Y148250D01*
Y149750D02*X214850Y150500D01*
X216350D01*
X217100Y149750D01*
X214100Y149000D02*X217100D01*
Y149750D02*Y149000D01*
X218900Y151250D02*X219650D01*
X218900Y149750D02*X219650D01*
X227150Y153500D02*X227900Y152750D01*
X224900Y153500D02*X227150D01*
X224150Y152750D02*X224900Y153500D01*
X224150Y152750D02*Y151250D01*
X224900Y150500D01*
X227150D01*
X227900Y149750D01*
Y148250D01*
X227150Y147500D02*X227900Y148250D01*
X224900Y147500D02*X227150D01*
X224150Y148250D02*X224900Y147500D01*
X231950Y150500D02*X232700Y149750D01*
X230450Y150500D02*X231950D01*
X229700Y149750D02*X230450Y150500D01*
X229700Y149750D02*Y148250D01*
X230450Y147500D01*
X232700Y150500D02*Y148250D01*
X233450Y147500D01*
X230450D02*X231950D01*
X232700Y148250D01*
X236000Y153500D02*Y148250D01*
X236750Y147500D01*
X235250Y151250D02*X236750D01*
X240950Y153500D02*Y147500D01*
Y153500D02*X243200Y150500D01*
X245450Y153500D01*
Y147500D01*
X249500Y150500D02*X250250Y149750D01*
X248000Y150500D02*X249500D01*
X247250Y149750D02*X248000Y150500D01*
X247250Y149750D02*Y148250D01*
X248000Y147500D01*
X250250Y150500D02*Y148250D01*
X251000Y147500D01*
X248000D02*X249500D01*
X250250Y148250D01*
X252800Y150500D02*Y148250D01*
X253550Y147500D01*
X255800Y150500D02*Y146000D01*
X255050Y145250D02*X255800Y146000D01*
X253550Y145250D02*X255050D01*
X252800Y146000D02*X253550Y145250D01*
Y147500D02*X255050D01*
X255800Y148250D01*
X260300Y152300D02*X261500Y153500D01*
Y147500D01*
X260300D02*X262550D01*
X264350Y149750D02*X267350Y153500D01*
X264350Y149750D02*X268100D01*
X267350Y153500D02*Y147500D01*
X272600Y152300D02*X273800Y153500D01*
Y147500D01*
X272600D02*X274850D01*
X276650Y148250D02*X277400Y147500D01*
X276650Y149450D02*Y148250D01*
Y149450D02*X277700Y150500D01*
X278600D01*
X279650Y149450D01*
Y148250D01*
X278900Y147500D02*X279650Y148250D01*
X277400Y147500D02*X278900D01*
X276650Y151550D02*X277700Y150500D01*
X276650Y152750D02*Y151550D01*
Y152750D02*X277400Y153500D01*
X278900D01*
X279650Y152750D01*
Y151550D01*
X278600Y150500D02*X279650Y151550D01*
X281450Y151250D02*X282200D01*
X281450Y149750D02*X282200D01*
X284000Y152750D02*X284750Y153500D01*
X287000D01*
X287750Y152750D01*
Y151250D01*
X284000Y147500D02*X287750Y151250D01*
X284000Y147500D02*X287750D01*
X289550Y148250D02*X290300Y147500D01*
X289550Y149450D02*Y148250D01*
Y149450D02*X290600Y150500D01*
X291500D01*
X292550Y149450D01*
Y148250D01*
X291800Y147500D02*X292550Y148250D01*
X290300Y147500D02*X291800D01*
X289550Y151550D02*X290600Y150500D01*
X289550Y152750D02*Y151550D01*
Y152750D02*X290300Y153500D01*
X291800D01*
X292550Y152750D01*
Y151550D01*
X291500Y150500D02*X292550Y151550D01*
X294350Y151250D02*X295100D01*
X294350Y149750D02*X295100D01*
X296900Y148250D02*X297650Y147500D01*
X296900Y152750D02*Y148250D01*
Y152750D02*X297650Y153500D01*
X299150D01*
X299900Y152750D01*
Y148250D01*
X299150Y147500D02*X299900Y148250D01*
X297650Y147500D02*X299150D01*
X296900Y149000D02*X299900Y152000D01*
X301700Y152300D02*X302900Y153500D01*
Y147500D01*
X301700D02*X303950D01*
X308450Y152750D02*X309200Y153500D01*
X311450D01*
X312200Y152750D01*
Y151250D01*
X308450Y147500D02*X312200Y151250D01*
X308450Y147500D02*X312200D01*
X314000Y148250D02*X314750Y147500D01*
X314000Y152750D02*Y148250D01*
Y152750D02*X314750Y153500D01*
X316250D01*
X317000Y152750D01*
Y148250D01*
X316250Y147500D02*X317000Y148250D01*
X314750Y147500D02*X316250D01*
X314000Y149000D02*X317000Y152000D01*
X318800Y152750D02*X319550Y153500D01*
X321800D01*
X322550Y152750D01*
Y151250D01*
X318800Y147500D02*X322550Y151250D01*
X318800Y147500D02*X322550D01*
X324350Y152750D02*X325100Y153500D01*
X327350D01*
X328100Y152750D01*
Y151250D01*
X324350Y147500D02*X328100Y151250D01*
X324350Y147500D02*X328100D01*
X332600Y153500D02*Y148250D01*
X333350Y147500D01*
X334850D01*
X335600Y148250D01*
Y153500D02*Y148250D01*
X337400Y153500D02*X340400D01*
X338900D02*Y147500D01*
X343250D02*X345200D01*
X342200Y148550D02*X343250Y147500D01*
X342200Y152450D02*Y148550D01*
Y152450D02*X343250Y153500D01*
X345200D01*
X200000Y167000D02*Y162500D01*
Y167000D02*X201050Y168500D01*
X202700D01*
X203750Y167000D01*
Y162500D01*
X200000Y165500D02*X203750D01*
X205550D02*Y163250D01*
X206300Y162500D01*
X207800D01*
X208550Y163250D01*
Y165500D02*Y163250D01*
X211100Y168500D02*Y163250D01*
X211850Y162500D01*
X210350Y166250D02*X211850D01*
X213350Y168500D02*Y162500D01*
Y164750D02*X214100Y165500D01*
X215600D01*
X216350Y164750D01*
Y162500D01*
X218150Y164750D02*Y163250D01*
Y164750D02*X218900Y165500D01*
X220400D01*
X221150Y164750D01*
Y163250D01*
X220400Y162500D02*X221150Y163250D01*
X218900Y162500D02*X220400D01*
X218150Y163250D02*X218900Y162500D01*
X223700Y164750D02*Y162500D01*
Y164750D02*X224450Y165500D01*
X225950D01*
X222950D02*X223700Y164750D01*
X227750Y166250D02*X228500D01*
X227750Y164750D02*X228500D01*
X233000Y168500D02*Y162500D01*
Y168500D02*X235250Y165500D01*
X237500Y168500D01*
Y162500D01*
G54D51*X239300Y167000D02*Y166850D01*
G54D50*Y164750D02*Y162500D01*
X241550Y165500D02*X243800D01*
X240800Y164750D02*X241550Y165500D01*
X240800Y164750D02*Y163250D01*
X241550Y162500D01*
X243800D01*
X245600Y168500D02*Y162500D01*
Y164750D02*X246350Y165500D01*
X247850D01*
X248600Y164750D01*
Y162500D01*
X252650Y165500D02*X253400Y164750D01*
X251150Y165500D02*X252650D01*
X250400Y164750D02*X251150Y165500D01*
X250400Y164750D02*Y163250D01*
X251150Y162500D01*
X253400Y165500D02*Y163250D01*
X254150Y162500D01*
X251150D02*X252650D01*
X253400Y163250D01*
X256700Y162500D02*X258950D01*
X255950Y163250D02*X256700Y162500D01*
X255950Y164750D02*Y163250D01*
Y164750D02*X256700Y165500D01*
X258200D01*
X258950Y164750D01*
X255950Y164000D02*X258950D01*
Y164750D02*Y164000D01*
X260750Y168500D02*Y163250D01*
X261500Y162500D01*
X266450Y168500D02*Y162500D01*
X265700Y168500D02*X268700D01*
X269450Y167750D01*
Y166250D01*
X268700Y165500D02*X269450Y166250D01*
X266450Y165500D02*X268700D01*
X272000Y162500D02*X274250D01*
X271250Y163250D02*X272000Y162500D01*
X271250Y164750D02*Y163250D01*
Y164750D02*X272000Y165500D01*
X273500D01*
X274250Y164750D01*
X271250Y164000D02*X274250D01*
Y164750D02*Y164000D01*
X276800Y168500D02*Y163250D01*
X277550Y162500D01*
X276050Y166250D02*X277550D01*
X279800Y162500D02*X282050D01*
X279050Y163250D02*X279800Y162500D01*
X279050Y164750D02*Y163250D01*
Y164750D02*X279800Y165500D01*
X281300D01*
X282050Y164750D01*
X279050Y164000D02*X282050D01*
Y164750D02*Y164000D01*
X284600Y164750D02*Y162500D01*
Y164750D02*X285350Y165500D01*
X286850D01*
X283850D02*X284600Y164750D01*
X289400Y162500D02*X291650D01*
X292400Y163250D01*
X291650Y164000D02*X292400Y163250D01*
X289400Y164000D02*X291650D01*
X288650Y164750D02*X289400Y164000D01*
X288650Y164750D02*X289400Y165500D01*
X291650D01*
X292400Y164750D01*
X288650Y163250D02*X289400Y162500D01*
X294950D02*X297200D01*
X294200Y163250D02*X294950Y162500D01*
X294200Y164750D02*Y163250D01*
Y164750D02*X294950Y165500D01*
X296450D01*
X297200Y164750D01*
X294200Y164000D02*X297200D01*
Y164750D02*Y164000D01*
X299750Y164750D02*Y162500D01*
Y164750D02*X300500Y165500D01*
X301250D01*
X302000Y164750D01*
Y162500D01*
X299000Y165500D02*X299750Y164750D01*
X200000Y183500D02*X203000D01*
X201500D02*Y177500D01*
G54D51*X204800Y182000D02*Y181850D01*
G54D50*Y179750D02*Y177500D01*
X207050Y183500D02*Y178250D01*
X207800Y177500D01*
X206300Y181250D02*X207800D01*
X209300Y183500D02*Y178250D01*
X210050Y177500D01*
X212300D02*X214550D01*
X211550Y178250D02*X212300Y177500D01*
X211550Y179750D02*Y178250D01*
Y179750D02*X212300Y180500D01*
X213800D01*
X214550Y179750D01*
X211550Y179000D02*X214550D01*
Y179750D02*Y179000D01*
X216350Y181250D02*X217100D01*
X216350Y179750D02*X217100D01*
X221600Y178250D02*X222350Y177500D01*
X221600Y182750D02*X222350Y183500D01*
X221600Y182750D02*Y178250D01*
X224150Y180500D02*Y178250D01*
X224900Y177500D01*
X226400D01*
X227150Y178250D01*
Y180500D02*Y178250D01*
X229700Y179750D02*Y177500D01*
Y179750D02*X230450Y180500D01*
X231200D01*
X231950Y179750D01*
Y177500D01*
X228950Y180500D02*X229700Y179750D01*
X233750Y183500D02*Y177500D01*
Y179750D02*X236000Y177500D01*
X233750Y179750D02*X235250Y181250D01*
X238550Y179750D02*Y177500D01*
Y179750D02*X239300Y180500D01*
X240050D01*
X240800Y179750D01*
Y177500D01*
X237800Y180500D02*X238550Y179750D01*
X242600D02*Y178250D01*
Y179750D02*X243350Y180500D01*
X244850D01*
X245600Y179750D01*
Y178250D01*
X244850Y177500D02*X245600Y178250D01*
X243350Y177500D02*X244850D01*
X242600Y178250D02*X243350Y177500D01*
X247400Y180500D02*Y178250D01*
X248150Y177500D01*
X248900D01*
X249650Y178250D01*
Y180500D02*Y178250D01*
X250400Y177500D01*
X251150D01*
X251900Y178250D01*
Y180500D02*Y178250D01*
X254450Y179750D02*Y177500D01*
Y179750D02*X255200Y180500D01*
X255950D01*
X256700Y179750D01*
Y177500D01*
X253700Y180500D02*X254450Y179750D01*
X258500Y183500D02*X259250Y182750D01*
Y178250D01*
X258500Y177500D02*X259250Y178250D01*
X263750Y180500D02*X266750D01*
X271250Y183500D02*Y177500D01*
Y183500D02*X274250D01*
X271250Y180800D02*X273500D01*
X278300Y180500D02*X279050Y179750D01*
X276800Y180500D02*X278300D01*
X276050Y179750D02*X276800Y180500D01*
X276050Y179750D02*Y178250D01*
X276800Y177500D01*
X279050Y180500D02*Y178250D01*
X279800Y177500D01*
X276800D02*X278300D01*
X279050Y178250D01*
X281600Y183500D02*Y177500D01*
Y178250D02*X282350Y177500D01*
X283850D01*
X284600Y178250D01*
Y179750D02*Y178250D01*
X283850Y180500D02*X284600Y179750D01*
X282350Y180500D02*X283850D01*
X281600Y179750D02*X282350Y180500D01*
X287150Y179750D02*Y177500D01*
Y179750D02*X287900Y180500D01*
X289400D01*
X286400D02*X287150Y179750D01*
G54D51*X291200Y182000D02*Y181850D01*
G54D50*Y179750D02*Y177500D01*
X293450Y180500D02*X295700D01*
X292700Y179750D02*X293450Y180500D01*
X292700Y179750D02*Y178250D01*
X293450Y177500D01*
X295700D01*
X299750Y180500D02*X300500Y179750D01*
X298250Y180500D02*X299750D01*
X297500Y179750D02*X298250Y180500D01*
X297500Y179750D02*Y178250D01*
X298250Y177500D01*
X300500Y180500D02*Y178250D01*
X301250Y177500D01*
X298250D02*X299750D01*
X300500Y178250D01*
X303800Y183500D02*Y178250D01*
X304550Y177500D01*
X303050Y181250D02*X304550D01*
G54D51*X306050Y182000D02*Y181850D01*
G54D50*Y179750D02*Y177500D01*
X307550Y179750D02*Y178250D01*
Y179750D02*X308300Y180500D01*
X309800D01*
X310550Y179750D01*
Y178250D01*
X309800Y177500D02*X310550Y178250D01*
X308300Y177500D02*X309800D01*
X307550Y178250D02*X308300Y177500D01*
X313100Y179750D02*Y177500D01*
Y179750D02*X313850Y180500D01*
X314600D01*
X315350Y179750D01*
Y177500D01*
X312350Y180500D02*X313100Y179750D01*
X320600Y183500D02*Y177500D01*
X322550Y183500D02*X323600Y182450D01*
Y178550D01*
X322550Y177500D02*X323600Y178550D01*
X319850Y177500D02*X322550D01*
X319850Y183500D02*X322550D01*
X326150Y179750D02*Y177500D01*
Y179750D02*X326900Y180500D01*
X328400D01*
X325400D02*X326150Y179750D01*
X332450Y180500D02*X333200Y179750D01*
X330950Y180500D02*X332450D01*
X330200Y179750D02*X330950Y180500D01*
X330200Y179750D02*Y178250D01*
X330950Y177500D01*
X333200Y180500D02*Y178250D01*
X333950Y177500D01*
X330950D02*X332450D01*
X333200Y178250D01*
X335750Y180500D02*Y178250D01*
X336500Y177500D01*
X337250D01*
X338000Y178250D01*
Y180500D02*Y178250D01*
X338750Y177500D01*
X339500D01*
X340250Y178250D01*
Y180500D02*Y178250D01*
G54D51*X342050Y182000D02*Y181850D01*
G54D50*Y179750D02*Y177500D01*
X344300Y179750D02*Y177500D01*
Y179750D02*X345050Y180500D01*
X345800D01*
X346550Y179750D01*
Y177500D01*
X343550Y180500D02*X344300Y179750D01*
X350600Y180500D02*X351350Y179750D01*
X349100Y180500D02*X350600D01*
X348350Y179750D02*X349100Y180500D01*
X348350Y179750D02*Y178250D01*
X349100Y177500D01*
X350600D01*
X351350Y178250D01*
X348350Y176000D02*X349100Y175250D01*
X350600D01*
X351350Y176000D01*
Y180500D02*Y176000D01*
M02*
