G04 start of page 3 for group 1 idx 1 *
G04 Title: (unknown), bottom *
G04 Creator: pcb 4.0.2 *
G04 CreationDate: Sat May 14 18:28:01 2022 UTC *
G04 For: railfan *
G04 Format: Gerber/RS-274X *
G04 PCB-Dimensions (mil): 1000.00 1250.00 *
G04 PCB-Coordinate-Origin: lower left *
%MOIN*%
%FSLAX25Y25*%
%LNBOTTOM*%
%ADD30C,0.0320*%
%ADD29C,0.0433*%
%ADD28C,0.0120*%
%ADD27C,0.0260*%
%ADD26C,0.0640*%
%ADD25C,0.0633*%
%ADD24C,0.0100*%
%ADD23C,0.0001*%
G54D23*G36*
X93300Y122200D02*X99900D01*
Y2200D01*
X93300D01*
Y4920D01*
X93307Y4919D01*
X94045Y4977D01*
X94764Y5150D01*
X95447Y5433D01*
X96078Y5820D01*
X96641Y6300D01*
X97121Y6863D01*
X97508Y7494D01*
X97791Y8177D01*
X97964Y8896D01*
X98007Y9634D01*
X97964Y10371D01*
X97791Y11091D01*
X97508Y11774D01*
X97121Y12405D01*
X96641Y12968D01*
X96078Y13448D01*
X95878Y13571D01*
X96078Y13694D01*
X96641Y14174D01*
X97121Y14737D01*
X97508Y15368D01*
X97791Y16051D01*
X97964Y16770D01*
X98007Y17508D01*
X97964Y18245D01*
X97791Y18965D01*
X97508Y19648D01*
X97121Y20279D01*
X96641Y20842D01*
X96078Y21322D01*
X95878Y21445D01*
X96078Y21568D01*
X96641Y22048D01*
X97121Y22611D01*
X97508Y23242D01*
X97791Y23925D01*
X97964Y24644D01*
X98007Y25382D01*
X97964Y26119D01*
X97791Y26839D01*
X97508Y27522D01*
X97121Y28153D01*
X96641Y28716D01*
X96078Y29196D01*
X95878Y29319D01*
X96078Y29442D01*
X96641Y29922D01*
X97121Y30485D01*
X97508Y31116D01*
X97791Y31799D01*
X97964Y32518D01*
X98007Y33256D01*
X97964Y33993D01*
X97791Y34713D01*
X97508Y35396D01*
X97121Y36027D01*
X96641Y36590D01*
X96078Y37070D01*
X95878Y37193D01*
X96078Y37316D01*
X96641Y37796D01*
X97121Y38359D01*
X97508Y38990D01*
X97791Y39673D01*
X97964Y40392D01*
X98007Y41130D01*
X97964Y41868D01*
X97791Y42587D01*
X97508Y43270D01*
X97121Y43901D01*
X96641Y44464D01*
X96078Y44944D01*
X95878Y45067D01*
X96078Y45190D01*
X96641Y45670D01*
X97121Y46233D01*
X97508Y46864D01*
X97791Y47547D01*
X97964Y48266D01*
X98007Y49004D01*
X97964Y49742D01*
X97791Y50461D01*
X97508Y51144D01*
X97121Y51775D01*
X96641Y52338D01*
X96078Y52818D01*
X95878Y52941D01*
X96078Y53064D01*
X96641Y53544D01*
X97121Y54107D01*
X97508Y54738D01*
X97791Y55421D01*
X97964Y56140D01*
X98007Y56878D01*
X97964Y57616D01*
X97791Y58335D01*
X97508Y59018D01*
X97121Y59649D01*
X96641Y60212D01*
X96078Y60692D01*
X95878Y60815D01*
X96078Y60938D01*
X96641Y61418D01*
X97121Y61981D01*
X97508Y62612D01*
X97791Y63295D01*
X97964Y64014D01*
X98007Y64752D01*
X97964Y65490D01*
X97791Y66209D01*
X97508Y66892D01*
X97121Y67523D01*
X96641Y68086D01*
X96078Y68566D01*
X95878Y68689D01*
X96078Y68812D01*
X96641Y69292D01*
X97121Y69855D01*
X97508Y70486D01*
X97791Y71169D01*
X97964Y71888D01*
X98007Y72626D01*
X97964Y73363D01*
X97791Y74083D01*
X97508Y74766D01*
X97121Y75397D01*
X96641Y75960D01*
X96078Y76440D01*
X95878Y76563D01*
X96078Y76686D01*
X96641Y77166D01*
X97121Y77729D01*
X97508Y78360D01*
X97791Y79043D01*
X97964Y79762D01*
X98007Y80500D01*
X97964Y81238D01*
X97791Y81957D01*
X97508Y82640D01*
X97121Y83271D01*
X96641Y83834D01*
X96078Y84314D01*
X95447Y84701D01*
X94764Y84984D01*
X94045Y85156D01*
X93307Y85214D01*
X93300Y85214D01*
Y122200D01*
G37*
G36*
X60996D02*X93300D01*
Y85214D01*
X92570Y85156D01*
X91850Y84984D01*
X91167Y84701D01*
X90536Y84314D01*
X89973Y83834D01*
X89493Y83271D01*
X89106Y82640D01*
X88823Y81957D01*
X88651Y81238D01*
X88593Y80500D01*
X88651Y79762D01*
X88823Y79043D01*
X89106Y78360D01*
X89493Y77729D01*
X89973Y77166D01*
X90536Y76686D01*
X90737Y76563D01*
X90536Y76440D01*
X89973Y75960D01*
X89493Y75397D01*
X89106Y74766D01*
X88823Y74083D01*
X88651Y73363D01*
X88593Y72626D01*
X88651Y71888D01*
X88823Y71169D01*
X89106Y70486D01*
X89493Y69855D01*
X89973Y69292D01*
X90536Y68812D01*
X90737Y68689D01*
X90536Y68566D01*
X89973Y68086D01*
X89493Y67523D01*
X89106Y66892D01*
X88823Y66209D01*
X88651Y65490D01*
X88593Y64752D01*
X88651Y64014D01*
X88823Y63295D01*
X89106Y62612D01*
X89493Y61981D01*
X89973Y61418D01*
X90536Y60938D01*
X90737Y60815D01*
X90536Y60692D01*
X89973Y60212D01*
X89493Y59649D01*
X89106Y59018D01*
X88823Y58335D01*
X88651Y57616D01*
X88593Y56878D01*
X88651Y56140D01*
X88823Y55421D01*
X89106Y54738D01*
X89493Y54107D01*
X89973Y53544D01*
X90536Y53064D01*
X90737Y52941D01*
X90536Y52818D01*
X89973Y52338D01*
X89493Y51775D01*
X89106Y51144D01*
X88823Y50461D01*
X88651Y49742D01*
X88593Y49004D01*
X88651Y48266D01*
X88823Y47547D01*
X89106Y46864D01*
X89493Y46233D01*
X89973Y45670D01*
X90536Y45190D01*
X90737Y45067D01*
X90536Y44944D01*
X89973Y44464D01*
X89493Y43901D01*
X89106Y43270D01*
X88823Y42587D01*
X88651Y41868D01*
X88593Y41130D01*
X88651Y40392D01*
X88823Y39673D01*
X89106Y38990D01*
X89493Y38359D01*
X89973Y37796D01*
X90536Y37316D01*
X90737Y37193D01*
X90536Y37070D01*
X89973Y36590D01*
X89493Y36027D01*
X89106Y35396D01*
X88823Y34713D01*
X88651Y33993D01*
X88593Y33256D01*
X88651Y32518D01*
X88823Y31799D01*
X89106Y31116D01*
X89493Y30485D01*
X89973Y29922D01*
X90536Y29442D01*
X90737Y29319D01*
X90536Y29196D01*
X89973Y28716D01*
X89493Y28153D01*
X89106Y27522D01*
X88823Y26839D01*
X88651Y26119D01*
X88593Y25382D01*
X88651Y24644D01*
X88823Y23925D01*
X89106Y23242D01*
X89493Y22611D01*
X89973Y22048D01*
X90536Y21568D01*
X90737Y21445D01*
X90536Y21322D01*
X89973Y20842D01*
X89493Y20279D01*
X89106Y19648D01*
X88823Y18965D01*
X88651Y18245D01*
X88593Y17508D01*
X88651Y16770D01*
X88823Y16051D01*
X89106Y15368D01*
X89493Y14737D01*
X89973Y14174D01*
X90536Y13694D01*
X90737Y13571D01*
X90536Y13448D01*
X89973Y12968D01*
X89493Y12405D01*
X89106Y11774D01*
X88823Y11091D01*
X88651Y10371D01*
X88593Y9634D01*
X88651Y8896D01*
X88823Y8177D01*
X89106Y7494D01*
X89493Y6863D01*
X89973Y6300D01*
X90536Y5820D01*
X91167Y5433D01*
X91850Y5150D01*
X92570Y4977D01*
X93300Y4920D01*
Y2200D01*
X60996D01*
Y61000D01*
X66441D01*
X66500Y60995D01*
X66735Y61014D01*
X66735Y61014D01*
X66965Y61069D01*
X67183Y61159D01*
X67384Y61283D01*
X67564Y61436D01*
X67602Y61481D01*
X67713Y61591D01*
X67953Y61444D01*
X68287Y61306D01*
X68639Y61221D01*
X69000Y61193D01*
X69361Y61221D01*
X69713Y61306D01*
X70047Y61444D01*
X70356Y61634D01*
X70631Y61869D01*
X70866Y62144D01*
X71056Y62453D01*
X71194Y62787D01*
X71279Y63139D01*
X71300Y63500D01*
X71279Y63861D01*
X71194Y64213D01*
X71056Y64547D01*
X70866Y64856D01*
X70631Y65131D01*
X70356Y65366D01*
X70047Y65556D01*
X69713Y65694D01*
X69361Y65779D01*
X69000Y65807D01*
X68639Y65779D01*
X68289Y65695D01*
X68279Y65861D01*
X68194Y66213D01*
X68056Y66547D01*
X67866Y66856D01*
X67631Y67131D01*
X67356Y67366D01*
X67047Y67556D01*
X66713Y67694D01*
X66361Y67779D01*
X66000Y67807D01*
X65639Y67779D01*
X65287Y67694D01*
X64953Y67556D01*
X64644Y67366D01*
X64369Y67131D01*
X64256Y67000D01*
X63621D01*
X63602Y67019D01*
X63564Y67064D01*
X63384Y67217D01*
X63183Y67341D01*
X62965Y67431D01*
X62735Y67486D01*
X62500Y67505D01*
X62441Y67500D01*
X60996D01*
Y97424D01*
X61117Y97498D01*
X61616Y97924D01*
X62042Y98422D01*
X62384Y98981D01*
X62635Y99587D01*
X62788Y100224D01*
X62827Y100878D01*
X62788Y101532D01*
X62635Y102169D01*
X62384Y102775D01*
X62042Y103334D01*
X61616Y103832D01*
X61117Y104258D01*
X60996Y104332D01*
Y122200D01*
G37*
G36*
X41332D02*X60996D01*
Y104332D01*
X60558Y104601D01*
X59953Y104852D01*
X59315Y105005D01*
X58661Y105056D01*
X58008Y105005D01*
X57370Y104852D01*
X56765Y104601D01*
X56206Y104258D01*
X55707Y103832D01*
X55281Y103334D01*
X54939Y102775D01*
X54688Y102169D01*
X54535Y101532D01*
X54483Y100878D01*
X54535Y100224D01*
X54688Y99587D01*
X54939Y98981D01*
X55281Y98422D01*
X55707Y97924D01*
X56206Y97498D01*
X56765Y97155D01*
X57370Y96904D01*
X58008Y96751D01*
X58661Y96700D01*
X59315Y96751D01*
X59953Y96904D01*
X60558Y97155D01*
X60996Y97424D01*
Y67500D01*
X54744D01*
X54631Y67631D01*
X54356Y67866D01*
X54047Y68056D01*
X53713Y68194D01*
X53361Y68279D01*
X53000Y68307D01*
X52639Y68279D01*
X52287Y68194D01*
X51953Y68056D01*
X51644Y67866D01*
X51369Y67631D01*
X51134Y67356D01*
X50944Y67047D01*
X50806Y66713D01*
X50721Y66361D01*
X50693Y66000D01*
X50721Y65639D01*
X50806Y65287D01*
X50944Y64953D01*
X51134Y64644D01*
X51369Y64369D01*
X51508Y64250D01*
X51369Y64131D01*
X51134Y63856D01*
X50944Y63547D01*
X50806Y63213D01*
X50721Y62861D01*
X50693Y62500D01*
X50721Y62139D01*
X50806Y61787D01*
X50944Y61453D01*
X51134Y61144D01*
X51369Y60869D01*
X51644Y60634D01*
X51953Y60444D01*
X52287Y60306D01*
X52639Y60221D01*
X53000Y60193D01*
X53361Y60221D01*
X53713Y60306D01*
X54047Y60444D01*
X54356Y60634D01*
X54631Y60869D01*
X54744Y61000D01*
X60996D01*
Y2200D01*
X41332D01*
Y96700D01*
X41339Y96700D01*
X41992Y96751D01*
X42630Y96904D01*
X43235Y97155D01*
X43794Y97498D01*
X44293Y97924D01*
X44719Y98422D01*
X45061Y98981D01*
X45312Y99587D01*
X45465Y100224D01*
X45504Y100878D01*
X45465Y101532D01*
X45312Y102169D01*
X45061Y102775D01*
X44719Y103334D01*
X44293Y103832D01*
X43794Y104258D01*
X43235Y104601D01*
X42630Y104852D01*
X41992Y105005D01*
X41339Y105056D01*
X41332Y105056D01*
Y122200D01*
G37*
G36*
X10481D02*X41332D01*
Y105056D01*
X40685Y105005D01*
X40047Y104852D01*
X39442Y104601D01*
X38883Y104258D01*
X38384Y103832D01*
X37958Y103334D01*
X37616Y102775D01*
X37365Y102169D01*
X37212Y101532D01*
X37160Y100878D01*
X37212Y100224D01*
X37365Y99587D01*
X37616Y98981D01*
X37958Y98422D01*
X38384Y97924D01*
X38883Y97498D01*
X39442Y97155D01*
X40047Y96904D01*
X40685Y96751D01*
X41332Y96700D01*
Y2200D01*
X10481D01*
Y7340D01*
X10488Y7341D01*
X10601Y7376D01*
X10707Y7429D01*
X10803Y7497D01*
X10888Y7579D01*
X10959Y7674D01*
X11011Y7779D01*
X11165Y8174D01*
X11279Y8583D01*
X11355Y9000D01*
X11393Y9422D01*
Y9846D01*
X11355Y10268D01*
X11279Y10685D01*
X11165Y11094D01*
X11016Y11490D01*
X10961Y11596D01*
X10890Y11691D01*
X10806Y11773D01*
X10709Y11842D01*
X10602Y11894D01*
X10489Y11930D01*
X10481Y11931D01*
Y14706D01*
X10507Y14737D01*
X10894Y15368D01*
X11177Y16051D01*
X11349Y16770D01*
X11393Y17508D01*
X11349Y18245D01*
X11177Y18965D01*
X10894Y19648D01*
X10507Y20279D01*
X10481Y20310D01*
Y22580D01*
X10507Y22611D01*
X10894Y23242D01*
X11177Y23925D01*
X11349Y24644D01*
X11393Y25382D01*
X11349Y26119D01*
X11177Y26839D01*
X10894Y27522D01*
X10507Y28153D01*
X10481Y28184D01*
Y30454D01*
X10507Y30485D01*
X10894Y31116D01*
X11177Y31799D01*
X11349Y32518D01*
X11393Y33256D01*
X11349Y33993D01*
X11177Y34713D01*
X10894Y35396D01*
X10507Y36027D01*
X10481Y36058D01*
Y38328D01*
X10507Y38359D01*
X10894Y38990D01*
X11177Y39673D01*
X11349Y40392D01*
X11393Y41130D01*
X11349Y41868D01*
X11177Y42587D01*
X10894Y43270D01*
X10507Y43901D01*
X10481Y43932D01*
Y46202D01*
X10507Y46233D01*
X10894Y46864D01*
X11177Y47547D01*
X11349Y48266D01*
X11393Y49004D01*
X11349Y49742D01*
X11177Y50461D01*
X10894Y51144D01*
X10507Y51775D01*
X10481Y51806D01*
Y54076D01*
X10507Y54107D01*
X10894Y54738D01*
X11177Y55421D01*
X11349Y56140D01*
X11393Y56878D01*
X11349Y57616D01*
X11177Y58335D01*
X10894Y59018D01*
X10507Y59649D01*
X10481Y59680D01*
Y61950D01*
X10507Y61981D01*
X10894Y62612D01*
X11177Y63295D01*
X11349Y64014D01*
X11393Y64752D01*
X11349Y65490D01*
X11177Y66209D01*
X10894Y66892D01*
X10507Y67523D01*
X10481Y67554D01*
Y69824D01*
X10507Y69855D01*
X10894Y70486D01*
X11177Y71169D01*
X11349Y71888D01*
X11393Y72626D01*
X11349Y73363D01*
X11177Y74083D01*
X10894Y74766D01*
X10507Y75397D01*
X10481Y75428D01*
Y75920D01*
X10576Y75959D01*
X10777Y76083D01*
X10957Y76236D01*
X11110Y76416D01*
X11234Y76617D01*
X11324Y76835D01*
X11379Y77065D01*
X11393Y77300D01*
X11379Y83935D01*
X11324Y84165D01*
X11234Y84383D01*
X11110Y84584D01*
X10957Y84764D01*
X10777Y84917D01*
X10576Y85041D01*
X10481Y85080D01*
Y122200D01*
G37*
G36*
Y75428D02*X10147Y75818D01*
X10358Y75869D01*
X10481Y75920D01*
Y75428D01*
G37*
G36*
Y67554D02*X10027Y68086D01*
X9464Y68566D01*
X9263Y68689D01*
X9464Y68812D01*
X10027Y69292D01*
X10481Y69824D01*
Y67554D01*
G37*
G36*
Y59680D02*X10027Y60212D01*
X9464Y60692D01*
X9263Y60815D01*
X9464Y60938D01*
X10027Y61418D01*
X10481Y61950D01*
Y59680D01*
G37*
G36*
Y51806D02*X10027Y52338D01*
X9464Y52818D01*
X9263Y52941D01*
X9464Y53064D01*
X10027Y53544D01*
X10481Y54076D01*
Y51806D01*
G37*
G36*
Y43932D02*X10027Y44464D01*
X9464Y44944D01*
X9263Y45067D01*
X9464Y45190D01*
X10027Y45670D01*
X10481Y46202D01*
Y43932D01*
G37*
G36*
Y36058D02*X10027Y36590D01*
X9464Y37070D01*
X9263Y37193D01*
X9464Y37316D01*
X10027Y37796D01*
X10481Y38328D01*
Y36058D01*
G37*
G36*
Y28184D02*X10027Y28716D01*
X9464Y29196D01*
X9263Y29319D01*
X9464Y29442D01*
X10027Y29922D01*
X10481Y30454D01*
Y28184D01*
G37*
G36*
Y20310D02*X10027Y20842D01*
X9464Y21322D01*
X9263Y21445D01*
X9464Y21568D01*
X10027Y22048D01*
X10481Y22580D01*
Y20310D01*
G37*
G36*
Y2200D02*X4900D01*
Y5291D01*
X5233Y5161D01*
X5642Y5048D01*
X6059Y4972D01*
X6481Y4934D01*
X6905D01*
X7327Y4972D01*
X7744Y5048D01*
X8153Y5161D01*
X8549Y5311D01*
X8655Y5365D01*
X8750Y5436D01*
X8832Y5521D01*
X8901Y5618D01*
X8953Y5724D01*
X8989Y5838D01*
X9006Y5955D01*
X9004Y6073D01*
X8984Y6190D01*
X8946Y6303D01*
X8891Y6408D01*
X8820Y6503D01*
X8735Y6585D01*
X8638Y6654D01*
X8532Y6706D01*
X8419Y6741D01*
X8301Y6758D01*
X8183Y6757D01*
X8066Y6737D01*
X7954Y6697D01*
X7686Y6592D01*
X7408Y6515D01*
X7124Y6463D01*
X6837Y6437D01*
X6549D01*
X6262Y6463D01*
X5978Y6515D01*
X5700Y6592D01*
X5430Y6694D01*
X5319Y6734D01*
X5203Y6754D01*
X5085Y6755D01*
X4968Y6738D01*
X4900Y6717D01*
Y12547D01*
X4967Y12526D01*
X5085Y12509D01*
X5203Y12511D01*
X5320Y12531D01*
X5431Y12571D01*
X5700Y12676D01*
X5978Y12753D01*
X6262Y12805D01*
X6396Y12817D01*
X6693Y12793D01*
X6990Y12817D01*
X7124Y12805D01*
X7408Y12753D01*
X7686Y12676D01*
X7956Y12574D01*
X8067Y12534D01*
X8183Y12514D01*
X8301Y12513D01*
X8418Y12530D01*
X8531Y12565D01*
X8636Y12617D01*
X8733Y12685D01*
X8817Y12767D01*
X8888Y12862D01*
X8943Y12966D01*
X8981Y13078D01*
X9001Y13195D01*
X9002Y13313D01*
X8989Y13403D01*
X9464Y13694D01*
X10027Y14174D01*
X10481Y14706D01*
Y11931D01*
X10372Y11947D01*
X10253Y11945D01*
X10136Y11925D01*
X10024Y11887D01*
X9919Y11832D01*
X9824Y11761D01*
X9742Y11676D01*
X9673Y11579D01*
X9621Y11473D01*
X9585Y11359D01*
X9568Y11242D01*
X9570Y11124D01*
X9590Y11007D01*
X9630Y10895D01*
X9735Y10627D01*
X9812Y10349D01*
X9864Y10065D01*
X9890Y9778D01*
Y9490D01*
X9864Y9202D01*
X9812Y8919D01*
X9735Y8641D01*
X9633Y8371D01*
X9593Y8260D01*
X9573Y8144D01*
X9572Y8026D01*
X9589Y7909D01*
X9624Y7796D01*
X9676Y7690D01*
X9744Y7594D01*
X9826Y7509D01*
X9921Y7439D01*
X10025Y7384D01*
X10137Y7346D01*
X10254Y7326D01*
X10372Y7324D01*
X10481Y7340D01*
Y2200D01*
G37*
G36*
X4900Y122200D02*X10481D01*
Y85080D01*
X10358Y85131D01*
X10128Y85186D01*
X9893Y85200D01*
X4900Y85190D01*
Y122200D01*
G37*
G54D24*X53000Y66000D02*X62500D01*
X63000Y65500D01*
X66000D01*
X53000Y62500D02*X66500D01*
X67500Y63500D01*
X69000D01*
G54D25*X58661Y100878D03*
X41339D03*
G54D26*X93307Y80500D03*
Y72626D03*
Y64752D03*
Y56878D03*
Y49004D03*
Y41130D03*
Y33256D03*
Y25382D03*
Y17508D03*
Y9634D03*
G54D23*G36*
X3493Y83700D02*Y77300D01*
X9893D01*
Y83700D01*
X3493D01*
G37*
G54D26*X6693Y72626D03*
Y64752D03*
Y56878D03*
Y49004D03*
Y41130D03*
Y33256D03*
Y25382D03*
Y17508D03*
Y9634D03*
G54D27*X51600Y70800D03*
X54000Y50300D03*
X53000Y62500D03*
Y66000D03*
X40500Y84500D03*
X37000D03*
X22500Y60600D03*
X61500Y35000D03*
X64500D03*
X51500Y59000D03*
X65500Y75000D03*
X68500D03*
X66000Y65500D03*
X69000Y63500D03*
G54D28*G54D29*G54D30*M02*
